<svg data-name="Layer 1" viewBox="0 0 512 512" xmlns="http://www.w3.org/2000/svg"><rect height="419.17" rx="96.06" width="432" x="40" y="46.42" fill="#ffffff" class="fill-2e0020"></rect><rect height="379.17" rx="76.06" width="392" x="60" y="66.42" fill="#ffffff" class="fill-2e0020"></rect><path d="m211.41 245 50.3 83a1.73 1.73 0 0 1-1.27 2.8h-36.07c-2.29 0-3.56-.76-4.32-2.29-11.18-19.81-22.36-39.63-33.79-60.46H186c-10.16 20.33-21.34 40.9-32 60.72a3.41 3.41 0 0 1-3.56 2h-34.29c-1.78 0-1.78-1.53-1-2.54l48.78-80.78L116.15 167a1.52 1.52 0 0 1 1.27-2.54h35.82c1.78 0 2.54.25 3.3 2 10.16 20.07 22.1 40.14 32.52 60.21h.25c9.91-20.33 21.08-39.89 31.5-60.21.76-1.27 1.27-2 3.56-2h32.77c1.77 0 2 1.27 1 2.79ZM264.75 268.83c0-36.33 27.18-66.81 73.67-66.81 2 0 4.57.25 8.38.5v-50a1.61 1.61 0 0 1 1.78-1.78h32c1.27 0 1.52.51 1.52 1.53v150.09a143.58 143.58 0 0 0 1 18.54c0 1.27-.26 1.78-1.78 2.29a127.72 127.72 0 0 1-50 10.16c-37.61 0-66.57-21.35-66.57-64.52Zm82.05-36.08c-2.54-1-5.84-1.27-9.4-1.27-19.56 0-36.32 11.94-36.32 35.57 0 25.15 14.48 36.07 33.78 36.07 4.32 0 8.39-.25 11.94-1.53Z" fill="#000000" class="fill-fbdaf1"></path></svg>