<svg id="SvgjsSvg1012" width="288" height="288" xmlns="http://www.w3.org/2000/svg" version="1.1" xmlns:xlink="http://www.w3.org/1999/xlink" xmlns:svgjs="http://svgjs.com/svgjs"><defs id="SvgjsDefs1013"></defs><g id="SvgjsG1014"><svg xmlns="http://www.w3.org/2000/svg" enable-background="new 0 0 32 32" viewBox="0 0 32 32" width="288" height="288"><rect width="539" height="176" x="-226" y="-20" fill="#ffffff" display="none" class="colorF3EEE9 svgShape"></rect><path d="M23.839,25.065C26.382,22.863,28,19.62,28,16c0-6.617-5.383-12-12-12S4,9.383,4,16c0,3.62,1.618,6.863,4.161,9.065l-1.018,1.697C7.049,26.918,7,27.096,7,27.277v0.914c0,0.372,0.391,0.613,0.724,0.447L8.74,28.13c0.17-0.085,0.312-0.217,0.41-0.38l0.831-1.385C11.753,27.398,13.805,28,16,28s4.247-0.602,6.019-1.635l0.831,1.386c0.098,0.163,0.24,0.295,0.41,0.38l1.016,0.508C24.609,28.804,25,28.563,25,28.191v-0.914c0-0.181-0.049-0.359-0.143-0.514L23.839,25.065z M16,26c-1.819,0-3.52-0.496-4.991-1.348l1.034-1.724C13.247,23.618,14.595,24,16,24c1.443,0,2.794-0.389,3.964-1.06l1.028,1.713C19.52,25.504,17.819,26,16,26z M14.771,18.382l0.675,0.45C15.613,18.944,15.807,19,16,19s0.387-0.056,0.555-0.168l0.675-0.45l1.707,2.845C18.067,21.717,17.067,22,16,22c-1.039,0-2.037-0.278-2.931-0.782L14.771,18.382z M14,14c0-1.105,0.895-2,2-2c1.105,0,2,0.895,2,2s-0.895,2-2,2C14.895,16,14,15.105,14,14z M22.791,23.319l-1.054-1.757C23.135,20.121,24,18.161,24,16c0-0.552-0.448-1-1-1s-1,0.448-1,1c0,1.427-0.503,2.739-1.338,3.77l-1.575-2.625l0.468-0.312C19.833,16.646,20,16.334,20,16v-4c0-0.552-0.448-1-1-1h-1V9c0-0.552-0.448-1-1-1h-2c-0.552,0-1,0.448-1,1v2h-1c-0.552,0-1,0.448-1,1v4c0,0.334,0.167,0.646,0.445,0.832l0.468,0.312l-3.705,6.175C7.241,21.492,6,18.891,6,16c0-5.514,4.486-10,10-10s10,4.486,10,10C26,18.891,24.759,21.492,22.791,23.319z" fill="#ffffff" class="color000 svgShape"></path></svg></g></svg>