<svg id="SvgjsSvg1011" width="288" height="288" xmlns="http://www.w3.org/2000/svg" version="1.1" xmlns:xlink="http://www.w3.org/1999/xlink" xmlns:svgjs="http://svgjs.com/svgjs"><defs id="SvgjsDefs1012"></defs><g id="SvgjsG1013"><svg xmlns="http://www.w3.org/2000/svg" viewBox="0 0 128 128" width="288" height="288"><path fill="#ffffff" d="M101.4,77.2c0,5-2.7,7.5-7.6,7.7H33.9c-4.9,0-7.6-2.5-7.6-7.7,0-5,2.7-7.5,7.6-7.7H94.1C99,69.7,101.4,72.2,101.4,77.2ZM94.1,88.7H33.9c-4.9,0-7.6,2.4-7.6,7.7,0,5,2.7,7.4,7.6,7.7H94.1c4.9,0,7.6-2.5,7.6-7.7C101.4,91.1,99,88.7,94.1,88.7Zm18.6-42.1h0c-4.9,0-7.6,2.5-7.6,7.4V96.1c0,5,2.7,7.5,7.6,7.7h0c7.4-.2,11.3-7.7,11.3-22.9V62C124,51.8,120.1,46.8,112.7,46.6Zm-97.4,0h0C7.9,46.8,4,51.8,4,62V80.9c0,15.2,3.9,22.7,11.3,22.9h0c4.9,0,7.6-2.4,7.6-7.7V54.3C22.7,49.3,20.2,46.8,15.3,46.6Zm97.4-3.8c0-12.7-6.6-18.7-18.6-18.9H33.9c-12.2.2-18.6,6.5-18.6,18.9h0c7.4,0,11.3,4,11.3,11.5s3.9,11.4,11.3,11.4H90.4c7.3,0,11.3-3.9,11.3-11.4-.3-7.7,3.9-11.2,11-11.5Z" class="colore42528 svgShape"></path></svg></g></svg>