<svg viewBox="0 0 512 512" xml:space="preserve" xmlns="http://www.w3.org/2000/svg" enable-background="new 0 0 512 512"><path d="M422.009 281.793c-16.096.071-30.035 3.952-41.675 9.701-4.24-8.553-8.624-16.025-9.343-21.629-.86-6.54-1.796-10.419-.789-18.179 1.007-7.762 5.532-18.756 5.461-19.545-.071-.79-1.006-4.743-10.275-4.815-9.269-.071-17.244 1.796-18.179 4.239-.936 2.443-2.73 7.977-3.808 13.725-1.653 8.407-18.54 38.443-28.097 54.107-3.161-6.106-5.819-11.497-6.395-15.808-.862-6.54-1.796-10.419-.79-18.179 1.006-7.762 5.532-18.756 5.46-19.545-.072-.79-1.006-4.743-10.274-4.815-9.27-.071-17.244 1.796-18.18 4.24-.934 2.442-1.94 8.191-3.808 13.726-1.867 5.53-24.359 55.541-30.251 68.548-3.019 6.609-5.604 11.927-7.473 15.521-.286.574-.502.934-.646 1.222.215-.359.36-.72.36-.574a257.052 257.052 0 0 1-2.516 4.813v.071c-1.222 2.299-2.587 4.382-3.233 4.382-.432 0-1.365-6.034.216-14.298 3.376-17.389 11.352-44.404 11.28-45.34-.072-.503 1.508-5.173-5.246-7.689-6.538-2.371-8.91 1.582-9.484 1.582s-1.006 1.438-1.006 1.438 7.258-30.467-13.94-30.467c-13.221 0-31.615 14.516-40.668 27.665-5.677 3.09-17.965 9.772-30.898 16.885-4.958 2.731-10.06 5.532-14.874 8.192-.359-.361-.647-.72-1.006-1.079-25.724-27.447-73.22-46.848-71.207-83.711.718-13.437 5.389-48.716 91.327-91.542 70.418-35.065 126.751-25.436 136.453-4.024 13.938 30.539-30.109 87.376-103.256 95.566-27.88 3.09-42.537-7.688-46.202-11.711-3.809-4.239-4.384-4.456-5.821-3.665-2.372 1.293-.862 5.03 0 7.257 2.156 5.676 11.137 15.736 26.443 20.766 13.435 4.383 46.13 6.827 85.649-8.479 44.406-17.102 78.969-64.742 68.837-104.62-10.346-40.525-77.53-53.819-141.121-31.257-37.867 13.437-78.824 34.563-108.285 62.082-34.993 32.767-40.597 61.292-38.299 73.221 8.192 42.321 66.537 69.914 89.89 90.32-1.15.647-2.228 1.222-3.233 1.797-11.712 5.819-56.19 29.1-67.328 53.677-12.573 27.879 2.083 47.853 11.712 50.585 30.035 8.334 60.789-6.683 77.316-31.33 16.525-24.645 14.514-56.836 6.898-71.495-.073-.215-.216-.357-.287-.575 3.017-1.795 6.106-3.592 9.197-5.388 5.963-3.521 11.784-6.756 16.885-9.556-2.875 7.761-4.958 17.098-6.036 30.609-1.293 15.807 5.246 36.286 13.725 44.334 3.735 3.521 8.262 3.594 11.065 3.594 9.916 0 14.37-8.193 19.328-17.965 6.108-11.93 11.497-25.798 11.497-25.798s-6.754 37.511 11.712 37.511c6.754 0 13.51-8.695 16.526-13.15v.071s.145-.286.504-.86c.718-1.079 1.077-1.726 1.077-1.726v-.217c2.73-4.67 8.695-15.377 17.675-33.052 11.642-22.851 22.778-51.378 22.778-51.378s1.006 6.972 4.457 18.54c2.011 6.826 6.25 14.299 9.627 21.557-2.729 3.736-4.383 5.892-4.383 5.892s0 .071.07.143a225.373 225.373 0 0 1-7.112 8.984c-9.198 10.921-20.12 23.425-21.556 27.017-1.726 4.24-1.294 7.399 2.012 9.844 2.442 1.869 6.754 2.155 11.28 1.797 8.264-.577 14.084-2.587 16.886-3.883 4.454-1.578 9.629-4.095 14.515-7.615 8.982-6.609 14.444-16.094 13.939-28.597-.287-6.898-2.516-13.797-5.246-20.262.791-1.151 1.654-2.374 2.444-3.593 14.229-20.769 25.222-43.544 25.222-43.544s1.006 6.968 4.454 18.537c1.725 5.821 5.102 12.216 8.191 18.466-13.365 10.851-21.627 23.427-24.502 31.688-5.318 15.306-1.15 22.202 6.682 23.786 3.521.718 8.551-.936 12.288-2.517 4.67-1.581 10.275-4.096 15.52-7.976 8.982-6.609 17.677-15.88 17.103-28.454-.217-5.677-1.797-11.353-3.881-16.814 11.28-4.741 25.941-7.33 44.622-5.173 40.023 4.67 47.854 29.675 46.345 40.093-1.507 10.492-9.914 16.241-12.717 17.965-2.804 1.725-3.665 2.372-3.448 3.665.358 1.868 1.651 1.797 4.022 1.364 3.307-.574 20.982-8.479 21.771-27.808 1.152-24.431-22.343-51.303-63.947-51.088zM113.538 385.766c-13.22 14.443-31.759 19.904-39.734 15.305-8.551-4.956-5.174-26.226 11.137-41.604 9.916-9.34 22.706-17.962 31.185-23.279 1.94-1.149 4.743-2.874 8.192-4.958.575-.357.862-.502.862-.502.646-.433 1.365-.791 2.084-1.223 5.962 21.844.214 41.1-13.726 56.261zm96.573-65.675c-4.599 11.28-14.3 40.023-20.19 38.514-5.03-1.294-8.121-23.209-1.006-44.764 3.592-10.851 11.208-23.784 15.736-28.813 7.256-8.121 15.232-10.708 17.101-7.474 2.514 4.239-8.768 35.496-11.641 42.537zm79.757 38.085c-1.939 1.005-3.736 1.651-4.598 1.148-.646-.359.791-1.725.791-1.725s9.986-10.706 13.939-15.594a679.32 679.32 0 0 0 7.832-9.986c0 .357.07.719.07 1.148-.069 12.864-12.428 21.56-18.034 25.009zm61.509-14.013c-1.437-1.006-1.223-4.383 3.592-14.875 1.869-4.096 6.181-10.993 13.652-17.604.863 2.73 1.365 5.316 1.365 7.759-.073 16.168-11.64 22.204-18.609 24.72z" fill="#ffffff" class="fill-cf649a"></path></svg>