<?xml version="1.0" encoding="UTF-8"?>
<svg xmlns="http://www.w3.org/2000/svg" xmlns:xlink="http://www.w3.org/1999/xlink" viewBox="0 0 500 500" width="500px" height="500px">
<g id="surface1168493">
<path style=" stroke:none;fill-rule:nonzero;fill:rgb(100%,100%,100%);fill-opacity:1;" d="M 450 40 L 50 40 C 44.46875 40 40 44.480469 40 50 L 40 450 C 40 455.519531 44.46875 460 50 460 L 450 460 C 455.53125 460 460 455.519531 460 450 L 460 50 C 460 44.480469 455.53125 40 450 40 Z M 290 264.449219 L 240 264.449219 L 240 420 L 200 420 L 200 264.449219 L 150 264.449219 L 150 230 L 290 230 Z M 301.210938 411.121094 L 301.210938 369.539062 C 301.210938 369.539062 323.921875 386.660156 351.171875 386.660156 C 378.421875 386.660156 377.371094 368.839844 377.371094 366.398438 C 377.371094 340.539062 300.160156 340.539062 300.160156 283.25 C 300.160156 205.339844 412.660156 236.078125 412.660156 236.078125 L 411.261719 273.121094 C 411.261719 273.121094 392.390625 260.539062 371.078125 260.539062 C 349.769531 260.539062 342.078125 270.671875 342.078125 281.5 C 342.078125 309.449219 419.988281 306.660156 419.988281 362.910156 C 420 449.550781 301.210938 411.121094 301.210938 411.121094 Z M 301.210938 411.121094 "/>
</g>
</svg>
