<svg width="132" height="132" viewBox="0 0 132 132" fill="none" xmlns="http://www.w3.org/2000/svg">
<path d="M96.922 11.9688H35.078C21.4004 11.9688 10.3125 23.0566 10.3125 36.7342V95.2706C10.3125 108.948 21.4004 120.036 35.078 120.036H96.922C110.6 120.036 121.688 108.948 121.688 95.2706V36.7342C121.688 23.0566 110.6 11.9688 96.922 11.9688Z" fill="black"/>
<path d="M96.922 17.125H35.078C24.2481 17.125 15.4688 25.9043 15.4688 36.7342V95.2706C15.4688 106.1 24.2481 114.88 35.078 114.88H96.922C107.752 114.88 116.531 106.1 116.531 95.2706V36.7342C116.531 25.9043 107.752 17.125 96.922 17.125Z" fill="black"/>
<path d="M54.5078 63.1634L67.4758 84.5618C67.5265 84.6261 67.5586 84.703 67.5685 84.7843C67.5784 84.8655 67.5658 84.9479 67.532 85.0225C67.4982 85.097 67.4445 85.1608 67.3768 85.2069C67.3092 85.253 67.2301 85.2796 67.1484 85.2837H57.8491C57.2587 85.2837 56.9313 85.0878 56.7353 84.6933C53.853 79.586 50.9706 74.4762 48.0238 69.106H47.9568C45.3374 74.3473 42.4551 79.6505 39.7068 84.7603C39.63 84.9338 39.499 85.0778 39.3336 85.1707C39.1682 85.2637 38.9771 85.3006 38.789 85.276H29.9486C29.4897 85.276 29.4897 84.8815 29.6908 84.6211L42.2669 63.795L29.9486 43.054C29.895 42.9955 29.8603 42.9221 29.8493 42.8435C29.8383 42.7649 29.8514 42.6849 29.8869 42.6139C29.9224 42.5429 29.9786 42.4844 30.0481 42.446C30.1176 42.4077 30.1971 42.3913 30.276 42.3992H39.5109C39.9698 42.3992 40.1657 42.4636 40.3617 42.9148C42.981 48.0891 46.0593 53.2634 48.7457 58.4377H48.8102C51.3651 53.1964 54.2449 48.1535 56.9313 42.9148C57.1272 42.5874 57.2587 42.3992 57.8491 42.3992H66.2976C66.7539 42.3992 66.8132 42.7266 66.5554 43.1185L54.5078 63.1634ZM68.2596 69.3071C68.2596 59.9407 75.2669 52.0826 87.2526 52.0826C87.7682 52.0826 88.4308 52.1471 89.4131 52.2115V39.3209C89.4061 39.2589 89.4132 39.1962 89.4338 39.1373C89.4544 39.0785 89.488 39.025 89.532 38.9809C89.5761 38.9369 89.6296 38.9033 89.6884 38.8827C89.7473 38.8621 89.81 38.855 89.872 38.862H98.122C98.4494 38.862 98.5139 38.9935 98.5139 39.2564V77.9515C98.4966 79.5487 98.5827 81.1453 98.7717 82.7314C98.7717 83.0588 98.7046 83.1903 98.3128 83.3217C94.2358 85.053 89.8515 85.9439 85.4221 85.9411C75.7258 85.9411 68.2596 80.4368 68.2596 69.3071V69.3071ZM89.4131 60.0052C88.7582 59.7474 87.9074 59.6778 86.9896 59.6778C81.9468 59.6778 77.6259 62.756 77.6259 68.8482C77.6259 75.3321 81.359 78.1474 86.3348 78.1474C87.4485 78.1474 88.4978 78.083 89.4131 77.753V60.0052Z" fill="white"/>
</svg>
