<svg width="141" height="25" viewBox="0 0 141 25" fill="none" xmlns="http://www.w3.org/2000/svg">
<path fill-rule="evenodd" clip-rule="evenodd" d="M2.59399 6.03021L2.60985 7.34167L12.1439 7.35652L21.6783 7.37137L21.8028 7.65141C21.9156 7.90493 22.0538 10.1537 21.96 10.2139C21.9484 10.2213 18.3828 10.2421 14.0365 10.2602C5.64523 10.2945 5.4362 10.3019 4.93036 10.5777C4.84964 10.6215 4.69982 10.6756 4.5976 10.6976C4.49502 10.7195 4.39808 10.7722 4.38187 10.8146C4.36565 10.857 4.28352 10.909 4.19927 10.9302C4.11502 10.9514 3.99729 11.0179 3.93736 11.078C3.87779 11.1378 3.80553 11.1968 3.77733 11.2092C3.60214 11.2845 3.05047 12.1377 3.05047 12.3333C3.05047 12.3895 3.00007 12.5359 2.93908 12.6586C2.86682 12.8028 2.8143 13.0737 2.78962 13.4283C2.76918 13.7296 2.72441 14.0478 2.69057 14.1355C2.60245 14.3643 2.60703 17.0526 2.69586 17.3829C2.73428 17.525 2.78857 17.8662 2.81677 18.1409C2.84814 18.4464 2.90383 18.6802 2.95918 18.7417C3.00923 18.7972 3.05047 18.8973 3.05047 18.9645C3.05047 19.0705 3.26092 19.526 3.48053 19.894C3.5683 20.0418 3.84431 20.336 3.89471 20.336C3.91586 20.336 4.06321 20.428 4.22254 20.5404C4.38187 20.6525 4.58667 20.7617 4.67726 20.783C4.76785 20.8042 4.90216 20.859 4.97513 20.9046C5.41505 21.18 5.50811 21.1825 16.7832 21.2027L27.373 21.2214V15.0474C27.373 11.2707 27.3508 8.79633 27.3162 8.6754C27.2852 8.56685 27.2418 8.20902 27.2196 7.88018C27.1921 7.47638 27.1438 7.21614 27.0705 7.07718C27.0106 6.96439 26.9616 6.81553 26.9616 6.74622C26.9616 6.67692 26.8559 6.48704 26.7265 6.32439C26.5975 6.16139 26.4917 6.00086 26.4917 5.96762C26.4917 5.89478 25.9584 5.42734 25.8749 5.42663C25.8424 5.42663 25.7391 5.36016 25.6454 5.27883C25.5513 5.19786 25.4184 5.13174 25.35 5.13174C25.2812 5.13174 25.167 5.09072 25.0955 5.04051C24.6845 4.75163 24.7017 4.75234 13.2571 4.73466L2.57812 4.71875L2.59399 6.03021ZM34.8876 4.74421C34.8731 4.75871 34.5499 4.81139 34.1692 4.8616C33.7853 4.91181 33.4198 4.99243 33.3493 5.04228C33.2791 5.09143 33.1603 5.13174 33.0856 5.13174C32.9615 5.13174 32.3912 5.37996 32.1028 5.55994C31.8533 5.71516 31.2787 6.15467 31.2589 6.20523C31.2477 6.23458 31.1814 6.32121 31.1119 6.39759C30.8437 6.69354 30.7817 6.78547 30.7443 6.94282C30.7231 7.03263 30.672 7.14578 30.6304 7.19422C30.3364 7.53897 30.3107 8.16199 30.3104 14.8996V21.22H33.0119H35.7135L35.729 14.5754L35.7449 7.9311L35.8964 7.66591L36.0484 7.40071L42.6912 7.38551L49.3337 7.37066L49.5012 7.6507L49.6686 7.9311L49.6862 14.5754L49.7039 21.22H52.4033H55.1027L55.1006 14.929L55.0985 8.63827L54.9642 7.95549C54.8902 7.58034 54.7855 7.20978 54.7312 7.13234C54.6773 7.05455 54.6329 6.95343 54.6329 6.90746C54.6329 6.81093 54.2927 6.3792 53.9776 6.07547C53.6596 5.76891 53.5461 5.69571 52.6352 5.21059C52.5545 5.16781 52.4114 5.13245 52.3169 5.13209C52.2225 5.13174 52.1005 5.09108 52.0459 5.04158C51.7536 4.77638 51.0923 4.75446 42.761 4.73572C38.445 4.72582 34.902 4.72971 34.8876 4.74421ZM70.9007 4.74492C70.8863 4.75941 70.5507 4.81139 70.1552 4.86019C69.7343 4.91252 69.3825 4.98712 69.3064 5.04051C69.2352 5.09072 69.1287 5.13174 69.0699 5.13174C68.9556 5.13174 68.3486 5.41426 68.0571 5.60307C67.9602 5.66601 67.8093 5.7583 67.7219 5.8078C67.4269 5.9754 66.7352 6.77699 66.7352 6.95095C66.7352 7.0054 66.6958 7.10724 66.6471 7.17654C66.3637 7.58281 66.3549 7.79072 66.3387 14.7235L66.3232 21.221L69.0113 21.2058L71.6999 21.1906L71.7291 14.5312L71.7584 7.87205L71.9209 7.62171L72.083 7.37101H88.4136H104.744L104.878 7.62171L105.011 7.87205L105.04 14.5312L105.07 21.1906H107.772H110.475V14.8261C110.475 7.90528 110.47 7.8084 110.129 7.16487C110.077 7.06763 110.035 6.95731 110.035 6.91983C110.034 6.76107 109.229 5.87109 109.029 5.80745C108.968 5.788 108.918 5.74981 108.918 5.72294C108.918 5.69571 108.845 5.64374 108.756 5.60696C108.668 5.57054 108.436 5.45068 108.242 5.34106C108.048 5.2311 107.81 5.13917 107.712 5.13669C107.614 5.13386 107.472 5.08825 107.396 5.03521C106.998 4.75482 107.264 4.75906 88.4979 4.7382C78.8341 4.72724 70.9152 4.73006 70.9007 4.74492ZM116.897 4.74951C116.88 4.76684 116.621 4.82094 116.322 4.86938C116.023 4.91782 115.723 4.99667 115.654 5.04476C115.586 5.09249 115.483 5.13174 115.424 5.13174C115.366 5.13174 115.184 5.23782 115.021 5.36758C114.857 5.497 114.697 5.60307 114.666 5.60307C114.588 5.60307 114.297 5.90115 114.248 6.03056C114.227 6.08714 114.185 6.13346 114.156 6.13346C114.126 6.13346 114.069 6.21301 114.029 6.31025C113.989 6.40749 113.935 6.48704 113.91 6.48704C113.884 6.48704 113.845 6.59984 113.823 6.73774C113.801 6.87528 113.746 7.04677 113.701 7.1182C113.655 7.18962 113.592 7.52129 113.561 7.85472C113.529 8.18851 113.477 8.64711 113.445 8.87376C113.412 9.11067 113.387 10.8553 113.387 12.9697C113.387 15.0838 113.412 16.8284 113.445 17.0653C113.477 17.2923 113.529 17.7509 113.561 18.0844C113.592 18.4182 113.655 18.7495 113.7 18.8209C113.744 18.8927 113.799 19.0536 113.821 19.1787C113.843 19.3039 113.912 19.4616 113.974 19.5288C114.037 19.596 114.088 19.6829 114.088 19.7222C114.088 19.7611 114.127 19.8085 114.176 19.8269C114.224 19.8456 114.264 19.8926 114.264 19.9312C114.264 20.0104 114.609 20.336 114.693 20.336C114.722 20.336 114.873 20.4421 115.028 20.5719C115.182 20.7013 115.358 20.8074 115.419 20.8074C115.481 20.8074 115.588 20.8477 115.658 20.8972C116.062 21.1804 116.144 21.1825 127.528 21.2027L138.177 21.2214L138.162 19.9092L138.146 18.5974L128.603 18.5681L119.06 18.5387L118.945 18.2145C118.847 17.9401 118.828 17.7237 118.823 16.8001L118.817 15.71L126.719 15.6779C135.108 15.6443 135.321 15.6368 135.825 15.3617C135.906 15.3175 136.055 15.2638 136.157 15.2419C136.259 15.2203 136.389 15.1507 136.445 15.0877C136.502 15.0248 136.581 14.9732 136.621 14.9732C136.838 14.9732 137.676 13.929 137.739 13.5797C137.761 13.4548 137.808 13.3169 137.843 13.2731C137.914 13.1833 138.02 12.3559 138.123 11.0773C138.211 9.99711 138.021 7.28969 137.842 7.06763C137.806 7.02379 137.758 6.89508 137.734 6.78194C137.71 6.66843 137.588 6.44603 137.463 6.28797C137.338 6.12992 137.235 5.97858 137.235 5.95171C137.235 5.88347 136.948 5.60307 136.879 5.60307C136.846 5.60307 136.805 5.56347 136.787 5.51468C136.768 5.46623 136.718 5.42628 136.675 5.42628C136.633 5.42628 136.52 5.36016 136.423 5.27919C136.328 5.19786 136.186 5.13174 136.109 5.13174C136.032 5.13174 135.909 5.08966 135.836 5.03804C135.44 4.75977 135.324 4.75658 125.834 4.73678C120.936 4.72653 116.914 4.73219 116.897 4.74951ZM58.0102 5.08684C57.9922 5.16003 57.9851 5.75052 57.9943 6.39865L58.0109 7.57751L60.7001 7.59271L63.389 7.60792L63.3731 6.29611L63.3572 4.98429L60.7001 4.96909L58.0429 4.95389L58.0102 5.08684ZM132.613 7.7543C132.901 8.59231 132.77 12.7006 132.448 12.969C132.4 13.009 130.124 13.0242 125.596 13.0139L118.817 12.9991L118.801 10.8482C118.784 8.64464 118.823 7.97954 118.989 7.59201L119.083 7.37066L125.788 7.38551L132.492 7.40071L132.613 7.7543ZM57.9816 15.7394V21.22H60.6842H63.3865V15.7394V10.2588H60.6842H57.9816V15.7394ZM21.9385 15.7394V18.5387L15.156 18.5536C10.822 18.5631 8.35313 18.5479 8.31647 18.5112C7.91251 18.1059 7.89735 13.6111 8.29779 12.9842C8.33551 12.9255 9.74339 12.9131 15.1419 12.9252L21.9385 12.94V15.7394Z" fill="black"/>
<path fill-rule="evenodd" clip-rule="evenodd" d="M2.56711 4.60104C2.43739 4.67883 2.40743 7.28724 2.53468 7.41489C2.58897 7.46934 4.7935 7.48561 12.0994 7.48561H21.5937L21.6617 8.11888C21.6994 8.46752 21.7593 8.96467 21.7949 9.22385C21.8309 9.48338 21.8506 9.79489 21.8397 9.91652C21.8284 10.0378 21.8436 10.1375 21.8735 10.1375C21.9983 10.1375 21.7621 7.61537 21.624 7.47111C21.6007 7.44671 17.3002 7.42019 12.067 7.41206L2.55231 7.39721L2.53644 6.07868C2.52516 5.13107 2.54032 4.73646 2.59002 4.67635C2.6496 4.60422 4.17945 4.59467 13.4745 4.60988L24.2899 4.6272L24.9815 4.87224C25.6915 5.12364 26.3831 5.578 26.5593 5.90861C26.597 5.97932 26.7042 6.11793 26.7969 6.21623C26.8896 6.31488 26.982 6.46162 27.0021 6.54259C27.0218 6.62356 27.0757 6.765 27.1219 6.85658C27.1681 6.94851 27.2608 7.31978 27.3281 7.68185C27.4913 8.56016 27.5706 21.1362 27.4138 21.267C27.3465 21.3229 24.9815 21.3346 16.6435 21.319L5.95992 21.2992L5.46043 21.1666C5.18583 21.0934 4.87775 20.9951 4.77588 20.9485C4.674 20.9014 4.56684 20.8629 4.53759 20.8629C4.50833 20.8629 4.40258 20.8031 4.30247 20.7303C4.20201 20.6575 4.06101 20.5578 3.9891 20.5093C3.34473 20.0751 2.91538 19.3061 2.72221 18.2403C2.51635 17.1057 2.5093 16.9929 2.54279 15.3823C2.57839 13.6709 2.65559 13.0606 2.93124 12.3001C3.09234 11.8556 3.62355 11.0802 3.76667 11.0802C3.79346 11.0802 3.9408 10.9914 4.09449 10.8832C4.6733 10.4741 5.31873 10.2577 6.13617 10.198L6.72344 10.1548L6.04029 10.146C5.51331 10.1393 5.34164 10.1566 5.28806 10.2213C5.24999 10.2673 5.10899 10.3235 4.97504 10.3461C4.6807 10.396 4.33737 10.5664 4.02117 10.8192C3.89181 10.9225 3.72613 11.0254 3.65316 11.0477C3.5802 11.0703 3.47832 11.1703 3.42651 11.2704C3.32428 11.4688 3.30278 11.4988 3.08282 11.752C3.00104 11.8457 2.93406 11.9719 2.93406 12.032C2.93406 12.0922 2.88119 12.2403 2.81668 12.3612C2.75217 12.4825 2.6993 12.6505 2.6993 12.7353C2.6993 12.8198 2.65277 12.9793 2.59637 13.0896C2.45925 13.3569 2.43774 17.8475 2.5724 18.0844C2.61576 18.1608 2.67357 18.3825 2.70106 18.577C2.7282 18.7714 2.79201 18.9762 2.84241 19.032C2.89282 19.0879 2.93406 19.1964 2.93406 19.2732C2.93406 19.4142 3.19456 19.8506 3.33063 19.9376C3.37116 19.9637 3.4043 20.0125 3.4043 20.0461C3.4043 20.1349 3.71379 20.4503 3.80051 20.4503C3.84105 20.4503 3.87418 20.4743 3.87418 20.5037C3.87418 20.6263 4.70679 21.0666 5.03849 21.1196C5.17808 21.1419 5.36208 21.2062 5.44739 21.2621C5.67933 21.4145 27.3038 21.4555 27.4554 21.3035C27.6433 21.115 27.577 7.70554 27.387 7.4697C27.3549 7.42974 27.3101 7.25931 27.2876 7.09065C27.265 6.92199 27.209 6.75297 27.1635 6.71514C27.1177 6.67695 27.0803 6.58608 27.0803 6.51289C27.0803 6.43757 26.9788 6.27492 26.8455 6.13702C26.7162 6.00337 26.6104 5.87572 26.6104 5.85345C26.6104 5.79687 26.3052 5.48183 26.2505 5.48183C26.2262 5.48183 26.119 5.40085 26.0119 5.30185C25.7718 5.0798 25.3337 4.85279 25.0397 4.79799C24.9181 4.77536 24.7535 4.71454 24.6741 4.66256C24.4968 4.54659 2.75852 4.48612 2.56711 4.60104ZM34.6534 4.59184C34.143 4.61306 33.7623 4.65478 33.7133 4.69545C33.6682 4.73293 33.5043 4.78243 33.3492 4.80577C33.1941 4.82875 33.0347 4.88037 32.9953 4.91997C32.9554 4.95993 32.8218 5.0112 32.6981 5.03454C32.5747 5.05787 32.3491 5.16466 32.1972 5.27179C32.0449 5.37893 31.8577 5.48678 31.7809 5.51117C31.574 5.57694 30.6621 6.53835 30.6236 6.73105C30.606 6.82051 30.5549 6.92376 30.5101 6.96088C30.4657 6.99801 30.4291 7.07757 30.4291 7.13732C30.4291 7.19708 30.3698 7.35973 30.2969 7.49834L30.1647 7.7508V14.5082C30.1647 18.2248 30.1869 21.2876 30.2137 21.3148C30.2895 21.3908 35.5766 21.4095 35.7173 21.3339C35.8329 21.272 35.8343 21.1988 35.8357 15.0117C35.8368 8.96679 35.841 8.73766 35.9531 8.31442C36.0169 8.07362 36.0691 7.83036 36.0691 7.77378C36.0691 7.47146 35.7476 7.48525 42.6975 7.48632C46.2415 7.48702 49.1736 7.50824 49.2134 7.53334C49.4662 7.69458 49.4845 8.13126 49.5191 14.8689C49.5483 20.4789 49.5635 21.2869 49.6403 21.3356C49.7651 21.4148 54.9602 21.4117 55.1079 21.3321C55.2895 21.2349 55.2859 7.87243 55.1041 7.51496C55.0396 7.38766 54.9867 7.23385 54.9867 7.17304C54.9867 7.11187 54.9338 6.99483 54.8693 6.91209C54.8044 6.8297 54.7516 6.72999 54.7516 6.69074C54.7516 6.65114 54.6923 6.5532 54.6194 6.47329C54.5468 6.39302 54.3948 6.21623 54.2817 6.0801C54.1685 5.94396 53.9849 5.77354 53.8731 5.7014C53.7617 5.62927 53.6031 5.52426 53.5206 5.46804C53.4385 5.41182 53.3172 5.34145 53.251 5.3121C53.1851 5.2824 53.0976 5.21805 53.0567 5.16855C53.0158 5.11904 52.872 5.05999 52.7374 5.03701C52.6027 5.01403 52.4388 4.96099 52.3736 4.91891C52.3084 4.87684 52.1491 4.82486 52.0197 4.80329C51.8907 4.78172 51.6922 4.7202 51.5791 4.66645C51.3654 4.56462 36.8484 4.50062 34.6534 4.59184ZM70.6669 4.59291C70.1787 4.61235 69.7741 4.65549 69.7272 4.69297C69.6817 4.72904 69.5259 4.77677 69.3803 4.79905C69.2351 4.82132 69.0606 4.87613 68.9926 4.92068C68.9245 4.96523 68.7712 5.02004 68.6517 5.04267C68.5322 5.0653 68.4021 5.11339 68.3626 5.15016C68.2375 5.26543 67.9181 5.48183 67.873 5.48183C67.7969 5.48183 67.3577 5.80147 67.2361 5.94538C67.1715 6.02175 67.0062 6.20491 66.8687 6.35165C66.7316 6.49839 66.6192 6.64902 66.6192 6.68615C66.6192 6.72292 66.5663 6.85728 66.5018 6.98457C66.4369 7.11187 66.3841 7.25083 66.3841 7.29361C66.3841 7.33675 66.3379 7.44247 66.2815 7.5291C66.1289 7.76247 66.088 21.1468 66.2395 21.2985C66.3537 21.4134 71.5242 21.4449 71.7343 21.3321C71.8457 21.2727 71.8478 21.1394 71.8478 14.9456C71.8478 9.6188 71.8612 8.58244 71.9317 8.38195C71.9779 8.25077 72.0339 8.02129 72.0561 7.87173C72.0819 7.69988 72.1358 7.57896 72.2035 7.54289C72.3815 7.44707 104.541 7.46581 104.62 7.56163C104.877 7.87137 104.887 8.1249 104.906 14.8519C104.923 20.7727 104.932 21.2515 105.024 21.3197C105.192 21.4446 110.407 21.4244 110.533 21.2985C110.684 21.1461 110.644 7.70342 110.491 7.48702C110.434 7.40711 110.388 7.28442 110.388 7.21511C110.388 7.14581 110.335 7.02135 110.27 6.93896C110.206 6.85658 110.153 6.74908 110.153 6.69994C110.153 6.65079 110.047 6.50652 109.918 6.37959C109.789 6.25229 109.683 6.12429 109.683 6.09459C109.683 6.00337 109.003 5.48183 108.885 5.48183C108.846 5.48183 108.799 5.44222 108.78 5.39343C108.762 5.34499 108.71 5.30503 108.666 5.30503C108.621 5.30503 108.526 5.25411 108.454 5.19188C108.383 5.1293 108.213 5.06035 108.078 5.03807C107.943 5.0158 107.793 4.96347 107.744 4.9221C107.696 4.88037 107.543 4.82769 107.404 4.80506C107.266 4.78208 107.067 4.71984 106.964 4.6661C106.771 4.56674 73.0153 4.49885 70.6669 4.59291ZM116.727 4.59397C116.384 4.61235 116.067 4.65761 116.022 4.69439C115.977 4.73116 115.827 4.77995 115.689 4.80294C115.551 4.82557 115.401 4.88179 115.355 4.9274C115.31 4.97301 115.238 5.01049 115.195 5.01049C115.123 5.01049 114.889 5.18057 114.672 5.39166C114.621 5.44116 114.553 5.48183 114.521 5.48183C114.457 5.48183 114.148 5.78945 114.148 5.85345C114.148 5.89057 114.101 5.94856 113.822 6.253C113.775 6.30427 113.737 6.381 113.737 6.42308C113.737 6.46551 113.687 6.60906 113.626 6.74237C113.566 6.87567 113.485 7.10373 113.447 7.24976C113.41 7.39544 113.349 7.62103 113.312 7.7508C113.217 8.08423 113.217 17.8479 113.312 18.1816C113.349 18.3111 113.41 18.5366 113.447 18.6823C113.485 18.8284 113.566 19.0568 113.626 19.1897C113.687 19.323 113.737 19.4666 113.737 19.509C113.737 19.5514 113.775 19.6278 113.822 19.6794C114.104 19.9874 114.148 20.0429 114.148 20.0903C114.148 20.1189 114.23 20.2052 114.329 20.2816C114.534 20.4389 114.686 20.5609 114.941 20.7741C115.038 20.8555 115.152 20.9216 115.195 20.9216C115.238 20.9219 115.312 20.9615 115.361 21.0103C115.409 21.0588 115.52 21.0987 115.607 21.0987C115.694 21.0987 115.87 21.1581 115.999 21.2313L116.234 21.3639L127.145 21.3813C134.959 21.394 138.09 21.3806 138.176 21.3346C138.293 21.272 138.296 21.2278 138.281 19.8732L138.265 18.4762L128.703 18.4613L119.142 18.4465V18.13C119.142 17.9561 119.104 17.5915 119.058 17.3199C119.012 17.0484 118.966 16.6007 118.955 16.3253L118.936 15.8243L127.167 15.7949C133.289 15.773 135.418 15.7479 135.48 15.697C135.525 15.6595 135.668 15.6089 135.797 15.5849C136.106 15.5273 136.439 15.3544 136.775 15.0768C136.925 14.953 137.063 14.8519 137.083 14.8519C137.138 14.8519 137.354 14.6228 137.354 14.5644C137.354 14.5362 137.46 14.4004 137.589 14.2625C137.718 14.1249 137.824 13.9757 137.824 13.9308C137.824 13.8863 137.877 13.7508 137.942 13.6299C138.006 13.5086 138.059 13.329 138.059 13.2307C138.059 13.1321 138.105 12.9857 138.162 12.9054C138.256 12.7721 138.265 12.543 138.265 10.1962C138.265 7.8498 138.256 7.62032 138.162 7.48702C138.105 7.40711 138.059 7.248 138.059 7.13343C138.059 7.01923 138.006 6.84597 137.942 6.74873C137.877 6.65149 137.825 6.53057 137.825 6.47965C137.824 6.42873 137.732 6.28306 137.619 6.15541C137.506 6.02812 137.413 5.90861 137.413 5.89022C137.413 5.83046 137.081 5.48183 137.024 5.48183C136.994 5.48183 136.926 5.43551 136.874 5.37858C136.677 5.16572 136.459 5.01049 136.358 5.01049C136.3 5.01049 136.222 4.97337 136.184 4.92846C136.147 4.8832 135.994 4.82804 135.845 4.80541C135.695 4.78314 135.54 4.73151 135.499 4.69085C135.36 4.55047 119.102 4.46667 116.727 4.59397ZM51.5498 4.76051C52.4381 5.02216 52.9066 5.19719 53.1674 5.36549C53.3176 5.46167 53.4604 5.54087 53.4854 5.54087C53.527 5.54087 53.6955 5.66711 54.0349 5.95351C54.4128 6.27209 54.7378 6.78338 55.0085 7.48561C55.1569 7.87031 55.2433 21.0779 55.0984 21.2529C55.004 21.3671 49.7323 21.3749 49.6586 21.2607C49.6326 21.22 49.5977 18.2301 49.5818 14.6161C49.5501 7.55527 49.5554 7.67336 49.2624 7.47182C49.1778 7.41312 36.2354 7.41595 36.1434 7.47465C36.1036 7.5001 36.0113 7.67867 35.9383 7.87137L35.8057 8.22213L35.7885 14.7009C35.7765 19.2622 35.7525 21.2027 35.7074 21.2571C35.6027 21.3837 30.4136 21.3689 30.2867 21.2416C30.2038 21.1589 30.1947 20.5231 30.1971 15.098C30.2006 8.06549 30.2239 7.58037 30.5856 7.04504C30.6289 6.98104 30.6642 6.88345 30.6642 6.82758C30.6642 6.37534 32.0893 5.29937 33.1024 4.98716C33.3932 4.8977 33.7105 4.79622 33.8074 4.76227C34.3965 4.55507 50.8476 4.5533 51.5498 4.76051ZM106.979 4.76758C107.253 4.84183 107.526 4.92881 107.586 4.96099C107.646 4.99317 107.818 5.05222 107.969 5.09217C108.395 5.20497 109.276 5.78626 109.656 6.20491C109.977 6.55921 110.113 6.79222 110.398 7.48561L110.532 7.80949L110.55 14.4898C110.564 19.4903 110.551 21.1903 110.5 21.2522C110.402 21.3703 105.148 21.3749 105.051 21.2571C105.006 21.2027 104.982 19.2474 104.97 14.6419C104.952 7.56729 104.96 7.73559 104.647 7.50011C104.533 7.41454 72.2888 7.39085 72.1545 7.47641C72.1132 7.50258 72.0205 7.66806 71.949 7.84379L71.8186 8.16308L71.802 14.6712C71.7904 19.2696 71.7667 21.202 71.7216 21.2568C71.6233 21.3756 66.3696 21.3703 66.2709 21.2511C66.2191 21.1886 66.2075 19.5359 66.223 14.5185L66.2434 7.86854L66.3968 7.48561C66.7031 6.71974 66.7898 6.56557 67.1215 6.20208C67.6964 5.57128 68.4846 5.14486 69.7328 4.78915C70.3077 4.62508 71.3938 4.61589 89.0618 4.62437L106.481 4.63286L106.979 4.76758ZM135.533 4.78526C136.109 4.9861 136.412 5.11904 136.568 5.23785C136.637 5.29089 136.755 5.37433 136.829 5.42278C136.991 5.52991 137.354 5.88916 137.354 5.94361C137.355 5.96518 137.447 6.08363 137.56 6.20703C137.673 6.33044 137.765 6.47116 137.765 6.51961C137.765 6.5684 137.815 6.71938 137.875 6.85516C138.372 7.97144 138.35 12.2513 137.842 13.6455C137.568 14.3951 136.758 15.1418 135.845 15.4869L135.269 15.7048L127.136 15.7221C121.406 15.7341 118.98 15.7578 118.926 15.8031C118.829 15.884 118.881 17.0229 119.021 17.8867L119.117 18.4762L128.662 18.5055L138.206 18.5352L138.222 19.8538C138.233 20.7766 138.218 21.1963 138.171 21.2533C138.022 21.4329 116.353 21.3487 116.125 21.1677C116.088 21.1383 115.953 21.0952 115.825 21.0719C115.524 21.0174 115.188 20.8445 114.831 20.5602C114.673 20.4351 114.522 20.3325 114.495 20.3325C114.395 20.3325 113.792 19.5034 113.757 19.3177C113.736 19.2113 113.684 19.0522 113.639 18.9638C113.343 18.3722 113.305 17.6916 113.305 12.9662C113.305 8.24052 113.343 7.56022 113.639 6.96831C113.684 6.87991 113.736 6.72186 113.756 6.6172C113.84 6.1745 114.627 5.39838 115.352 5.04373C116.262 4.59856 115.887 4.61306 126.309 4.62296L135.092 4.63109L135.533 4.78526ZM57.9681 4.8383C57.8384 4.91396 57.8084 7.58178 57.936 7.70943C58.0242 7.79783 63.3081 7.81056 63.4467 7.72251C63.5715 7.64331 63.5785 5.02216 63.4541 4.87189C63.3578 4.75591 58.1641 4.72373 57.9681 4.8383ZM63.4283 4.96629C63.532 5.12647 63.5218 7.51955 63.4171 7.62457C63.2923 7.74974 58.1183 7.77449 57.9946 7.65038C57.9184 7.574 57.8888 5.0066 57.9632 4.93164C58.0418 4.85279 63.3772 4.88638 63.4283 4.96629ZM119.115 7.50011C118.905 8.17404 118.73 12.6643 118.905 12.8761C119.007 12.9988 132.309 13.015 132.402 12.8923C132.734 12.4514 132.733 8.02624 132.4 7.50011C132.363 7.44212 130.968 7.42656 125.746 7.42656C120.511 7.42656 119.133 7.44176 119.115 7.50011ZM132.428 8.04534C132.449 8.33705 132.495 8.71857 132.531 8.89324C132.613 9.2981 132.612 11.1438 132.53 11.4928C132.495 11.6385 132.449 12.0098 132.428 12.3177L132.39 12.8778H125.663H118.936L118.941 11.0802C118.945 9.69765 118.968 9.14535 119.044 8.68639C119.098 8.35862 119.142 7.95411 119.142 7.78757V7.4849L125.766 7.50011L132.39 7.51496L132.428 8.04534ZM57.9047 10.1768C57.7876 10.2938 57.8641 21.2706 57.9822 21.3339C58.1229 21.4095 63.41 21.3908 63.4858 21.3148C63.5408 21.2593 63.588 10.6272 63.5344 10.3288C63.5133 10.2114 63.4654 10.1375 63.4104 10.1375C63.3311 10.1375 63.3314 10.1481 63.4132 10.2302C63.5538 10.3712 63.5538 21.1005 63.4132 21.2416C63.2919 21.3632 58.1148 21.3841 57.9946 21.2635C57.8923 21.161 57.8923 10.3108 57.9946 10.2082C58.0369 10.1658 58.0407 10.1375 58.0044 10.1375C57.9709 10.1375 57.9262 10.1552 57.9047 10.1768ZM8.37173 13.02C8.06576 13.5168 8.03826 17.0714 8.33084 18.2994L8.37279 18.4762H15.127H21.8809V15.7359V12.9956L15.1433 12.9807C11.0733 12.9715 8.39182 12.9871 8.37173 13.02ZM21.8376 15.7507L21.8527 18.4468H15.1302H8.40733L8.37314 18.049C8.35446 17.8302 8.29947 17.4235 8.25117 17.1453C8.13485 16.4784 8.13485 15.0089 8.25117 14.4004C8.29947 14.1465 8.3393 13.8325 8.33965 13.7027C8.34 13.573 8.35692 13.3675 8.37702 13.2459L8.41332 13.0246L15.1179 13.0394L21.8224 13.0546L21.8376 15.7507Z" fill="black"/>
<path fill-rule="evenodd" clip-rule="evenodd" d="M7.80266 4.64056C10.6569 4.64904 15.3099 4.64904 18.1429 4.64056C20.9756 4.63207 18.6403 4.625 12.9534 4.625C7.26651 4.625 4.94847 4.63207 7.80266 4.64056ZM39.1413 4.64056C41.104 4.64904 44.3164 4.64904 46.2795 4.64056C48.2422 4.63207 46.6362 4.625 42.7104 4.625C38.7842 4.625 37.1783 4.63207 39.1413 4.64056ZM80.0067 4.64056C84.6378 4.64904 92.1989 4.64904 96.8089 4.64056C101.419 4.63207 97.6299 4.62535 88.3884 4.62535C79.1469 4.62535 75.3752 4.63207 80.0067 4.64056ZM121.626 4.64056C123.912 4.64904 127.653 4.64904 129.939 4.64056C132.225 4.63207 130.355 4.625 125.783 4.625C121.211 4.625 119.34 4.63207 121.626 4.64056ZM24.1012 4.69607C24.1576 4.71057 24.2503 4.71057 24.3067 4.69607C24.3635 4.68122 24.3169 4.66884 24.2041 4.66884C24.091 4.66884 24.0448 4.68122 24.1012 4.69607ZM34.2944 4.69678C34.3671 4.71092 34.4859 4.71092 34.5588 4.69678C34.6314 4.68299 34.5719 4.67132 34.4266 4.67132C34.2811 4.67132 34.2215 4.68299 34.2944 4.69678ZM50.862 4.69678C50.9346 4.71092 51.0534 4.71092 51.1263 4.69678C51.1989 4.68299 51.1394 4.67132 50.9941 4.67132C50.8486 4.67132 50.789 4.68299 50.862 4.69678ZM70.3087 4.69713C70.382 4.71092 70.4877 4.71057 70.5438 4.69572C70.5998 4.68087 70.5403 4.66955 70.4109 4.67026C70.2815 4.67097 70.2357 4.68299 70.3087 4.69713ZM106.264 4.69713C106.337 4.71092 106.443 4.71057 106.499 4.69572C106.555 4.68087 106.495 4.66955 106.366 4.67026C106.237 4.67097 106.191 4.68299 106.264 4.69713ZM116.456 4.69607C116.513 4.71057 116.605 4.71057 116.662 4.69607C116.718 4.68122 116.672 4.66884 116.559 4.66884C116.446 4.66884 116.4 4.68122 116.456 4.69607ZM134.904 4.69607C134.96 4.71057 135.053 4.71057 135.109 4.69607C135.166 4.68122 135.12 4.66884 135.007 4.66884C134.893 4.66884 134.847 4.68122 134.904 4.69607ZM107.512 4.9793C107.592 5.02562 107.685 5.0638 107.717 5.0638C107.749 5.0638 107.71 5.02562 107.629 4.9793C107.548 4.93298 107.456 4.89514 107.423 4.89514C107.391 4.89514 107.431 4.93298 107.512 4.9793ZM115.443 4.9793C115.362 5.02562 115.322 5.0638 115.355 5.0638C115.387 5.0638 115.479 5.02562 115.56 4.9793C115.641 4.93298 115.681 4.89514 115.648 4.89514C115.616 4.89514 115.524 4.93298 115.443 4.9793ZM25.6938 5.17235C25.7403 5.24767 26.084 5.50296 26.084 5.46194C26.084 5.44745 25.9871 5.36117 25.8683 5.2703C25.7498 5.17978 25.6712 5.13558 25.6938 5.17235ZM63.4737 6.3643C63.4737 7.02869 63.4825 7.3006 63.4927 6.96823C63.5033 6.63621 63.5033 6.09239 63.4927 5.76037C63.4825 5.428 63.4737 5.69991 63.4737 6.3643ZM114.352 5.73067L114.18 5.92231L114.37 5.74906C114.548 5.58782 114.589 5.53938 114.543 5.53938C114.533 5.53938 114.447 5.6253 114.352 5.73067ZM31.4121 5.90746C31.2291 6.08921 31.2284 6.09168 31.3983 5.95237C31.4967 5.8714 31.6024 5.78512 31.6331 5.76072C31.6637 5.73597 31.6697 5.71617 31.6468 5.71617C31.6236 5.71617 31.5182 5.80209 31.4121 5.90746ZM110.428 7.77865C110.475 8.03288 110.508 8.08062 110.507 7.89145C110.506 7.8133 110.48 7.70935 110.448 7.66091C110.408 7.59868 110.402 7.63368 110.428 7.77865ZM59.3512 7.70511C60.0862 7.7143 61.2892 7.7143 62.0242 7.70511C62.7595 7.69556 62.1582 7.68778 60.6879 7.68778C59.2176 7.68778 58.6162 7.69556 59.3512 7.70511ZM66.2828 7.95545C66.2828 8.06895 66.2948 8.11527 66.3096 8.05869C66.3244 8.00177 66.3244 7.90913 66.3096 7.8522C66.2948 7.79562 66.2828 7.84194 66.2828 7.95545ZM55.1201 8.24998C55.1201 8.36349 55.1321 8.40981 55.1469 8.35323C55.1617 8.29666 55.1617 8.20366 55.1469 8.14709C55.1321 8.09016 55.1201 8.13648 55.1201 8.24998ZM27.39 8.36808C27.39 8.48158 27.4024 8.5279 27.4172 8.47098C27.4316 8.4144 27.4316 8.32141 27.4172 8.26483C27.4024 8.20826 27.39 8.25458 27.39 8.36808ZM110.523 8.45648C110.523 8.58589 110.535 8.63221 110.549 8.55867C110.563 8.48547 110.563 8.3794 110.548 8.32318C110.534 8.2666 110.522 8.32671 110.523 8.45648ZM113.343 8.57422C113.343 8.70399 113.355 8.74996 113.369 8.67677C113.383 8.60322 113.383 8.49714 113.368 8.44092C113.354 8.3847 113.342 8.44446 113.343 8.57422ZM66.2246 14.8239C66.2137 19.714 66.2267 21.2079 66.2807 21.262C66.3339 21.3154 67.0086 21.3296 69.0273 21.319L71.7035 21.3052L69.0009 21.2748L66.2983 21.2443L66.2687 14.8504L66.2387 8.45648L66.2246 14.8239ZM138.198 8.86876C138.198 9.09577 138.209 9.18134 138.222 9.05899C138.235 8.93665 138.234 8.75102 138.221 8.64671C138.208 8.54205 138.198 8.64211 138.198 8.86876ZM49.6123 14.8504C49.6123 18.3347 49.6194 19.76 49.6282 18.0179C49.6367 16.2757 49.6367 13.4251 49.6282 11.683C49.6194 9.94084 49.6123 11.3662 49.6123 14.8504ZM21.8716 8.89846C21.8716 9.07667 21.8826 9.14951 21.896 9.06041C21.9097 8.9713 21.9097 8.82527 21.896 8.73617C21.8826 8.64706 21.8716 8.7199 21.8716 8.89846ZM118.87 9.22235C118.87 9.48188 118.881 9.58054 118.893 9.44193C118.906 9.30332 118.906 9.09117 118.893 8.9706C118.88 8.84967 118.87 8.96317 118.87 9.22235ZM30.2248 14.9979C30.2248 18.4011 30.2319 19.7847 30.2407 18.0723C30.2492 16.3602 30.2492 13.5757 30.2407 11.8845C30.2319 10.1937 30.2248 11.5946 30.2248 14.9979ZM132.68 10.1947C132.68 10.7297 132.689 10.9486 132.7 10.6809C132.711 10.4136 132.711 9.9762 132.7 9.70853C132.689 9.44122 132.68 9.66009 132.68 10.1947ZM27.4352 15.263L27.4059 21.2443L17.066 21.274L6.72577 21.3037L17.0442 21.3182C25.6783 21.3306 27.3731 21.3197 27.4285 21.2528C27.4767 21.1945 27.4905 19.5715 27.4796 15.227L27.4644 9.2814L27.4352 15.263ZM113.296 12.9647C113.296 14.569 113.304 15.2252 113.313 14.4233C113.322 13.621 113.322 12.3081 113.313 11.5062C113.304 10.7039 113.296 11.3601 113.296 12.9647ZM10.4711 10.1802C12.5635 10.1887 15.987 10.1887 18.0794 10.1802C20.1715 10.1714 18.4598 10.1647 14.2753 10.1647C10.0907 10.1647 8.379 10.1714 10.4711 10.1802ZM59.3512 10.1802C60.0862 10.1894 61.2892 10.1894 62.0242 10.1802C62.7595 10.1707 62.1582 10.1629 60.6879 10.1629C59.2176 10.1629 58.6162 10.1707 59.3512 10.1802ZM5.83007 10.2354C5.88647 10.2502 5.97918 10.2502 6.03558 10.2354C6.09198 10.2205 6.0458 10.2085 5.93265 10.2085C5.81949 10.2085 5.77332 10.2205 5.83007 10.2354ZM63.4772 15.7344C63.4772 18.7325 63.4843 19.9591 63.4931 18.4598C63.5019 16.961 63.5019 14.5078 63.4931 13.0089C63.4843 11.5097 63.4772 12.7363 63.4772 15.7344ZM138.198 11.5207C138.198 11.7477 138.209 11.8332 138.222 11.7109C138.235 11.5886 138.234 11.4029 138.221 11.2986C138.208 11.194 138.198 11.294 138.198 11.5207ZM8.12026 14.2023C8.12026 14.3154 8.13225 14.3621 8.14705 14.3052C8.16186 14.2486 8.16186 14.1556 8.14705 14.099C8.13225 14.0425 8.12026 14.0888 8.12026 14.2023ZM2.54688 14.8211C2.54688 15.145 2.55675 15.2701 2.56874 15.099C2.58072 14.9275 2.58037 14.6623 2.56839 14.5096C2.5564 14.3568 2.54653 14.4968 2.54688 14.8211ZM8.06668 15.7344C8.06668 15.9451 8.07726 16.0314 8.0903 15.926C8.10334 15.8207 8.10334 15.6481 8.0903 15.5427C8.07726 15.4374 8.06668 15.5236 8.06668 15.7344ZM134.581 15.7171C134.654 15.7312 134.76 15.7308 134.816 15.716C134.873 15.7011 134.813 15.6898 134.683 15.6902C134.554 15.6909 134.508 15.7029 134.581 15.7171ZM2.54688 16.6774C2.54688 17.0176 2.55675 17.1569 2.56874 16.9868C2.58037 16.8164 2.58037 16.5381 2.56874 16.368C2.55675 16.1976 2.54688 16.3369 2.54688 16.6774ZM118.87 16.7361C118.87 16.9794 118.88 17.0787 118.893 16.9571C118.906 16.8358 118.906 16.6367 118.893 16.5151C118.88 16.3938 118.87 16.4932 118.87 16.7361ZM8.12026 17.2665C8.12026 17.38 8.13225 17.4263 8.14705 17.3697C8.16186 17.3132 8.16186 17.2202 8.14705 17.1636C8.13225 17.1067 8.12026 17.153 8.12026 17.2665ZM113.343 17.3549C113.343 17.4846 113.355 17.5306 113.369 17.4574C113.383 17.3842 113.383 17.2781 113.368 17.2216C113.354 17.1654 113.342 17.2255 113.343 17.3549ZM3.46515 20.0549C3.46515 20.0651 3.55116 20.151 3.6562 20.2462L3.84726 20.4194L3.67453 20.2278C3.51379 20.0492 3.46515 20.0093 3.46515 20.0549ZM115.443 20.9498C115.524 20.9961 115.616 21.034 115.648 21.034C115.681 21.034 115.641 20.9961 115.56 20.9498C115.479 20.9035 115.387 20.8657 115.355 20.8657C115.322 20.8657 115.362 20.9035 115.443 20.9498ZM5.94745 21.2557C6.00385 21.2705 6.09656 21.2705 6.15296 21.2557C6.20971 21.2408 6.16318 21.2288 6.05038 21.2288C5.93723 21.2288 5.89105 21.2408 5.94745 21.2557ZM49.6934 21.2892C49.7177 21.314 50.9391 21.3271 52.4077 21.3186L55.0771 21.3034L52.3629 21.274C50.8701 21.2578 49.6687 21.2645 49.6934 21.2892ZM116.604 21.2567C116.677 21.2709 116.783 21.2702 116.839 21.2557C116.895 21.2408 116.835 21.2291 116.706 21.2298C116.577 21.2306 116.531 21.2426 116.604 21.2567ZM31.68 21.3182C32.4149 21.3274 33.618 21.3274 34.353 21.3182C35.0883 21.3087 34.4866 21.3009 33.0166 21.3009C31.5464 21.3009 30.945 21.3087 31.68 21.3182ZM59.3512 21.3182C60.0862 21.3274 61.2892 21.3274 62.0242 21.3182C62.7595 21.3087 62.1582 21.3009 60.6879 21.3009C59.2176 21.3009 58.6162 21.3087 59.3512 21.3182ZM106.443 21.3182C107.197 21.3274 108.413 21.3274 109.146 21.3179C109.879 21.3087 109.262 21.3009 107.776 21.3009C106.289 21.3013 105.69 21.3087 106.443 21.3182ZM122.659 21.3182C125.513 21.3267 130.166 21.3267 132.999 21.3182C135.832 21.3098 133.497 21.3027 127.81 21.3027C122.123 21.3027 119.805 21.3098 122.659 21.3182Z" fill="black"/>
<path fill-rule="evenodd" clip-rule="evenodd" d="M2.55979 4.69843C2.48435 4.7741 2.5129 7.28209 2.5901 7.35953C2.64439 7.41398 4.85033 7.43025 12.1622 7.43025C21.1612 7.43025 21.6656 7.43555 21.6938 7.5335C21.8119 7.94154 21.9106 8.90223 21.8955 9.49273L21.8775 10.1706L13.77 10.2034C4.73083 10.2399 5.48342 10.2045 4.57573 10.6338C3.80341 10.9987 3.13789 11.6606 3.01169 12.1892C2.99054 12.2783 2.9352 12.4264 2.88867 12.5187C2.62042 13.0526 2.42654 16.8406 2.62888 17.5959C2.66377 17.7257 2.71982 18.0283 2.75401 18.2691C2.78785 18.5096 2.83826 18.7352 2.86611 18.7698C2.8936 18.8048 2.95494 18.9685 3.00253 19.134C3.27712 20.0898 4.15062 20.7962 5.48624 21.1427C5.87611 21.2439 6.46196 21.2495 16.6489 21.2495H27.4001L27.416 15.003C27.4269 10.7713 27.4117 8.62325 27.3691 8.34357C27.3342 8.11692 27.281 7.73504 27.2506 7.49566C27.2203 7.25628 27.172 7.03069 27.1438 6.99463C27.1156 6.95892 27.0585 6.8242 27.0169 6.69549C26.8301 6.11384 25.9771 5.26523 25.3524 5.03893C25.2185 4.99049 24.9502 4.89255 24.7564 4.82183L24.4039 4.69277L13.5021 4.67544C7.50607 4.6659 2.58199 4.67615 2.55979 4.69843ZM34.3031 4.72141C32.8875 4.89219 30.9491 5.9869 30.7281 6.74075C30.7168 6.77965 30.66 6.91755 30.6022 7.04731C30.2603 7.81283 30.279 7.37969 30.279 14.6198V21.2495H33.0109H35.7427L35.7723 14.6495L35.8019 8.04903L35.9458 7.73928L36.0892 7.42989L42.7011 7.44475L49.3129 7.4596L49.4247 7.69544C49.486 7.82521 49.5554 8.07696 49.5791 8.25517L49.6217 8.57941L49.6291 8.23643C49.6355 7.96417 49.6055 7.83935 49.4842 7.63215L49.3316 7.37085L42.6891 7.3857L36.0462 7.4009L35.8943 7.66609L35.7427 7.93128L35.7269 14.5756L35.7114 21.2202H33.0098H30.3082V14.8998C30.3086 8.16217 30.3343 7.53915 30.6283 7.19441C30.6699 7.14596 30.721 7.03282 30.7422 6.943C30.7795 6.78566 30.8416 6.69372 31.1098 6.39777C31.1793 6.3214 31.2455 6.23477 31.2568 6.20542C31.2766 6.15486 31.8511 5.71535 32.1007 5.56012C32.389 5.38015 32.9594 5.13193 33.0835 5.13193C33.1582 5.13193 33.277 5.09162 33.3471 5.04247C33.9908 4.59023 51.5457 4.58952 52.0437 5.04176C52.0984 5.09126 52.2203 5.13193 52.3148 5.13228C52.4093 5.13263 52.5524 5.16799 52.6331 5.21078C53.544 5.6959 53.6575 5.76909 53.9754 6.07565C54.2906 6.37939 54.6307 6.81112 54.6307 6.90764C54.6307 6.95361 54.6752 7.05474 54.7291 7.13253C54.7834 7.20996 54.8881 7.58052 54.9621 7.95568L55.0964 8.63846L55.0985 14.9291L55.1006 21.2202H52.3984H49.6964L49.6809 14.9146L49.6654 8.60876L49.6661 14.9291L49.6665 21.2495H52.3984H55.1302V14.6788C55.1302 7.6173 55.1433 7.9433 54.8225 7.13571C54.4707 6.25068 53.4657 5.39323 52.3687 5.04247C51.1822 4.66342 52.1597 4.7002 42.969 4.68711C38.4129 4.68075 34.5132 4.69595 34.3031 4.72141ZM70.4051 4.70161C69.4692 4.7893 67.8565 5.459 67.3669 5.96321C67.0779 6.26093 66.6746 6.80617 66.6746 6.89951C66.6746 6.96068 66.6517 7.02504 66.6235 7.04236C66.5956 7.05969 66.5096 7.26689 66.4324 7.50238L66.2925 7.93128V14.5904V21.2495L68.9912 21.2651C71.1112 21.2771 71.6998 21.2644 71.7369 21.206C71.7629 21.1654 71.7852 18.2281 71.7866 14.6788L71.789 8.22582L71.9219 7.84289L72.0552 7.4596L88.3738 7.44475L104.692 7.42989L104.821 7.70994L104.95 7.98998L104.964 14.502C104.972 18.0835 104.992 21.0734 105.009 21.1466L105.04 21.2792H107.765C110.195 21.2792 110.493 21.269 110.525 21.1859C110.583 21.0335 110.563 8.92027 110.504 8.35347C110.399 7.35104 110.088 6.67463 109.416 5.98796C109.144 5.71075 108.014 5.07288 107.794 5.07288C107.728 5.07288 107.62 5.04388 107.554 5.00852C107.488 4.97317 107.259 4.88795 107.044 4.81936L106.654 4.69454L88.647 4.68676C78.7431 4.68287 70.5345 4.68923 70.4051 4.70161ZM116.494 4.72035C114.768 5.01701 113.838 5.94412 113.481 7.72479C113.324 8.50586 113.282 16.8916 113.43 17.8904C113.706 19.7609 114.505 20.7167 116.142 21.1367C116.569 21.246 116.929 21.2495 127.393 21.2495H138.202L138.218 19.9607C138.23 19.0594 138.214 18.6471 138.167 18.5905C138.111 18.5223 136.597 18.5092 128.623 18.5092C122.984 18.5092 119.132 18.4876 119.112 18.4555C119.004 18.2794 118.884 17.3265 118.879 16.5942L118.874 15.7689L126.922 15.7353C132.48 15.712 135.053 15.6812 135.236 15.6367C135.878 15.4786 136.5 15.1993 136.844 14.9139C137.206 14.6137 137.762 13.9172 137.762 13.7641C137.762 13.7132 137.804 13.589 137.856 13.4886C138.503 12.2337 138.255 7.06711 137.506 6.18102C137.404 6.06116 137.264 5.88754 137.194 5.79526C136.986 5.51946 136.359 5.12804 135.765 4.9028L135.206 4.69136L125.983 4.68287C120.91 4.67863 116.64 4.69525 116.494 4.72035ZM24.449 4.85047C24.732 4.90492 25.0221 4.99085 25.0933 5.0407C25.1649 5.09091 25.2791 5.13193 25.3479 5.13193C25.4162 5.13193 25.5491 5.19805 25.6432 5.27902C25.737 5.36034 25.8403 5.42682 25.8727 5.42682C25.9563 5.42753 26.4896 5.89497 26.4896 5.96781C26.4896 6.00105 26.5954 6.16157 26.7244 6.32458C26.8537 6.48723 26.9595 6.67711 26.9595 6.74641C26.9595 6.81571 27.0085 6.96457 27.0684 7.07737C27.1417 7.21633 27.19 7.47657 27.2175 7.88037C27.2397 8.2092 27.2831 8.56703 27.3141 8.67558C27.3486 8.79651 27.3709 11.2709 27.3709 15.0476V21.2216L16.781 21.2029C5.50598 21.1827 5.41292 21.1802 4.973 20.9048C4.90003 20.8592 4.76573 20.8044 4.67514 20.7831C4.58455 20.7619 4.37974 20.6527 4.22041 20.5406C4.06108 20.4281 3.91374 20.3362 3.89259 20.3362C3.84218 20.3362 3.56617 20.042 3.4784 19.8942C3.25879 19.5261 3.04835 19.0707 3.04835 18.9646C3.04835 18.8975 3.00711 18.7974 2.95705 18.7419C2.90171 18.6804 2.84602 18.4466 2.81464 18.1411C2.78644 17.8664 2.73216 17.5252 2.69374 17.383C2.60491 17.0528 2.60032 14.3645 2.68845 14.1357C2.72229 14.048 2.76706 13.7298 2.7875 13.4285C2.81218 13.0739 2.8647 12.803 2.93696 12.6588C2.99794 12.5361 3.04835 12.3897 3.04835 12.3335C3.04835 12.1379 3.60001 11.2847 3.77521 11.2094C3.80341 11.197 3.87567 11.138 3.93524 11.0782C3.99517 11.0181 4.1129 10.9516 4.19715 10.9304C4.2814 10.9092 4.36353 10.8572 4.37974 10.8148C4.39596 10.7724 4.4929 10.7197 4.59547 10.6978C4.6977 10.6758 4.84751 10.6217 4.92823 10.5779C5.43407 10.3021 5.6431 10.2947 14.0344 10.2604C18.3807 10.2423 21.9462 10.2215 21.9579 10.214C22.0516 10.1539 21.9134 7.90512 21.8006 7.65159L21.6762 7.37155L12.1418 7.3567L2.60773 7.34185L2.59186 6.03039L2.576 4.71894L13.255 4.73485C22.9829 4.7497 23.9798 4.75995 24.449 4.85047ZM106.662 4.84835C106.989 4.89785 107.319 4.98201 107.394 5.0354C107.47 5.08844 107.612 5.13405 107.71 5.13688C107.807 5.13935 108.046 5.23129 108.24 5.34125C108.434 5.45086 108.665 5.57073 108.754 5.60715C108.843 5.64392 108.916 5.6959 108.916 5.72313C108.916 5.75 108.965 5.78819 109.026 5.80763C109.227 5.87128 110.031 6.76126 110.032 6.92002C110.032 6.9575 110.075 7.06782 110.127 7.16506C110.468 7.80859 110.473 7.90547 110.473 14.8262V21.1908H107.77H105.067L105.038 14.5314L105.009 7.87223L104.875 7.62189L104.742 7.3712H88.4115H72.0809L71.9188 7.62189L71.7562 7.87223L71.727 14.5314L71.6977 21.1908L69.0092 21.206L66.321 21.2212L66.3366 14.7237C66.3528 7.79091 66.3616 7.583 66.645 7.17673C66.6936 7.10742 66.7331 7.00559 66.7331 6.95114C66.7331 6.77717 67.4247 5.97559 67.7198 5.80799C67.8072 5.75848 67.9581 5.6662 68.055 5.60326C68.3465 5.41444 68.9535 5.13193 69.0677 5.13193C69.1266 5.13193 69.2331 5.09091 69.3043 5.0407C69.3804 4.98731 69.7322 4.9127 70.1531 4.86037C70.5486 4.81158 70.8842 4.7596 70.8986 4.7451C70.9829 4.66059 106.092 4.76207 106.662 4.84835ZM135.219 4.85012C135.484 4.90209 135.76 4.98696 135.834 5.03823C135.907 5.08985 136.03 5.13193 136.107 5.13193C136.184 5.13193 136.325 5.19805 136.421 5.27937C136.518 5.36034 136.631 5.42647 136.673 5.42647C136.716 5.42647 136.766 5.46642 136.784 5.51486C136.803 5.56366 136.844 5.60326 136.876 5.60326C136.946 5.60326 137.233 5.88365 137.233 5.9519C137.233 5.97877 137.336 6.13011 137.461 6.28816C137.586 6.44621 137.708 6.66862 137.732 6.78212C137.756 6.89527 137.804 7.02398 137.839 7.06782C138.018 7.28987 138.208 9.9973 138.121 11.0775C138.017 12.3561 137.912 13.1835 137.84 13.2733C137.806 13.3171 137.759 13.455 137.736 13.5798C137.674 13.9292 136.836 14.9733 136.619 14.9733C136.579 14.9733 136.5 15.025 136.443 15.0879C136.386 15.1508 136.257 15.2205 136.155 15.2421C136.053 15.264 135.904 15.3177 135.823 15.3619C135.319 15.637 135.106 15.6444 126.717 15.678L118.815 15.7102L118.821 16.8003C118.826 17.7239 118.845 17.9403 118.943 18.2147L119.058 18.5389L128.601 18.5683L138.144 18.5976L138.16 19.9094L138.175 21.2216L127.526 21.2029C116.142 21.1827 116.06 21.1806 115.656 20.8974C115.586 20.8478 115.479 20.8075 115.417 20.8075C115.356 20.8075 115.18 20.7015 115.026 20.5721C114.871 20.4423 114.72 20.3362 114.69 20.3362C114.606 20.3362 114.262 20.0106 114.262 19.9313C114.262 19.8928 114.222 19.8458 114.174 19.827C114.125 19.8087 114.086 19.7613 114.086 19.7224C114.086 19.6831 114.035 19.5961 113.972 19.529C113.91 19.4618 113.841 19.3041 113.819 19.1789C113.797 19.0537 113.742 18.8929 113.697 18.8211C113.653 18.7497 113.59 18.4183 113.559 18.0846C113.527 17.7511 113.475 17.2925 113.443 17.0655C113.409 16.8286 113.385 15.084 113.385 12.9699C113.385 10.8555 113.409 9.11085 113.443 8.87395C113.475 8.6473 113.527 8.18869 113.559 7.85491C113.59 7.52147 113.653 7.18981 113.698 7.11838C113.744 7.04696 113.799 6.87547 113.821 6.73792C113.843 6.60002 113.882 6.48723 113.907 6.48723C113.933 6.48723 113.987 6.40767 114.027 6.31044C114.067 6.2132 114.124 6.13364 114.154 6.13364C114.183 6.13364 114.224 6.08732 114.246 6.03075C114.295 5.90133 114.586 5.60326 114.664 5.60326C114.695 5.60326 114.855 5.49718 115.019 5.36777C115.182 5.238 115.364 5.13193 115.422 5.13193C115.481 5.13193 115.584 5.09268 115.652 5.04494C115.72 4.99686 116.021 4.91801 116.32 4.86956C116.619 4.82112 116.878 4.76702 116.895 4.7497C116.985 4.65918 134.742 4.75642 135.219 4.85012ZM57.9858 4.9767C57.9386 5.03434 57.9231 5.44096 57.9344 6.34756L57.9502 7.63639H60.6821H63.414V6.28109V4.92579L60.7336 4.91023C58.5068 4.8975 58.0422 4.90881 57.9858 4.9767ZM63.371 6.29629L63.3868 7.6081L60.698 7.5929L58.0087 7.57769L57.9922 6.39883C57.983 5.75071 57.9901 5.16021 58.008 5.08702L58.0408 4.95407L60.698 4.96928L63.3551 4.98448L63.371 6.29629ZM118.987 7.59219C118.821 7.97972 118.782 8.64482 118.799 10.8484L118.815 12.9993L125.594 13.0141C130.121 13.0244 132.398 13.0092 132.446 12.9692C132.768 12.7008 132.899 8.59249 132.611 7.75449L132.49 7.4009L125.786 7.3857L119.081 7.37085L118.987 7.59219ZM132.553 7.96063C132.644 8.38281 132.661 8.73463 132.661 10.1999C132.661 11.6652 132.644 12.0173 132.553 12.4395L132.445 12.9402H125.659H118.874L118.875 10.7303C118.876 8.58719 118.936 7.7704 119.112 7.48364C119.132 7.45146 121.818 7.43591 125.795 7.44475L132.445 7.4596L132.553 7.96063ZM57.9481 10.2731C57.9326 10.3138 57.9266 12.8005 57.9351 15.7986L57.9502 21.2495H60.6821H63.414V15.7396V10.2296L60.6951 10.214C58.5512 10.202 57.9703 10.2144 57.9481 10.2731ZM63.3844 15.7396V21.2202H60.6821H57.9795V15.7396V10.259H60.6821H63.3844V15.7396ZM8.29567 12.9844C7.89523 13.6113 7.91038 18.1061 8.31435 18.5113C8.35101 18.5481 10.8199 18.5633 15.1539 18.5538L21.9364 18.5389V15.7396V12.9402L15.1398 12.9254C9.74127 12.9133 8.33338 12.9257 8.29567 12.9844ZM21.893 15.7544L21.9082 18.5092H15.1261C8.71726 18.5092 8.34184 18.5036 8.314 18.4063C8.00168 17.3236 8.00027 14.0643 8.31153 13.0728C8.3422 12.9749 8.70386 12.9703 15.1106 12.9844L21.8775 12.9993L21.893 15.7544Z" fill="black"/>
</svg>
