<svg width="141" height="113" viewBox="0 0 141 113" fill="none" xmlns="http://www.w3.org/2000/svg">
<g clip-path="url(#clip0_701_21)">
<path d="M39.747 44.8064C39.5884 49.8053 42.0823 52.019 42.144 53.4249C42.1147 53.711 42.0173 53.9859 41.8602 54.2267C41.703 54.4674 41.4906 54.667 41.2407 54.8087L38.4207 56.7862C38.0558 57.0425 37.6256 57.1894 37.1804 57.2099C37.0857 57.2055 35.376 57.6138 32.6684 51.5577C31.0164 53.6234 28.9146 55.2831 26.5237 56.4097C24.1329 57.5362 21.5164 58.0999 18.8746 58.0574C15.2879 58.2538 5.56774 56.0181 6.06785 45.6517C5.71756 37.2032 13.5717 31.9549 21.6946 32.3985C23.2588 32.4029 26.4534 32.4801 32.0471 33.7823V30.3349C32.6397 24.4951 28.8085 19.9641 22.1749 20.6438C21.6461 20.646 17.9008 20.5335 12.0758 22.8751C10.4543 23.6211 10.2472 23.4975 9.70741 23.4975C8.0749 23.4975 8.74685 18.7568 9.0597 18.1565C10.2075 16.744 16.9601 14.1066 23.5871 14.1441C28.0181 13.7515 32.4254 15.1215 35.8563 17.9579C37.251 19.5206 38.315 21.3503 38.984 23.3365C39.6531 25.3227 39.9134 27.4241 39.7492 29.5139L39.747 44.8064V44.8064ZM20.7076 51.955C27.8524 51.8512 30.8772 47.5475 31.5668 45.2302C32.1088 43.0121 32.0185 41.6084 32.0185 39.1829C29.888 38.6709 26.8213 38.1125 23.3029 38.1081C19.9652 37.8565 13.8691 39.3506 14.1071 45.2279C13.8339 48.9336 16.5569 52.158 20.7076 51.955V51.955ZM58.3634 57.0422C56.6318 57.2011 55.8254 55.9696 55.5699 54.7535L44.5983 18.4147C44.3846 17.8012 44.2436 17.1678 44.1753 16.5211C44.1348 16.2545 44.2017 15.9827 44.3611 15.7654C44.5206 15.5482 44.7596 15.4032 45.0257 15.3624C45.0786 15.3536 44.5564 15.3624 49.9277 15.3624C51.862 15.1682 52.4921 16.6932 52.6926 17.6511L60.5622 48.7327L67.8677 17.6511C67.9845 16.9404 68.5154 15.2079 70.6877 15.3911H74.4683C74.9464 15.3514 76.9159 15.2807 77.2618 17.6798L84.6247 49.1587L92.7476 17.6798C92.8534 17.1986 93.3469 15.1704 95.5412 15.3911H99.8857C100.073 15.3624 101.241 15.2123 101.042 17.2847C100.948 17.693 101.794 14.932 89.4209 54.7822C89.1675 55.9983 88.359 57.2298 86.6273 57.0709H82.5097C80.0995 57.3247 79.7536 54.9389 79.7161 54.6983L72.4106 24.4333L65.1887 54.6674C65.1535 54.908 64.8076 57.2938 62.3951 57.04H58.3634V57.0422ZM118.614 58.2847C117.319 58.2869 111.141 58.2185 105.977 55.5723C105.463 55.3541 105.025 54.9878 104.718 54.5198C104.412 54.0519 104.251 53.5033 104.257 52.9437V50.5712C104.257 48.7062 105.623 49.0483 106.202 49.2712C108.414 50.1673 109.833 50.847 112.549 51.39C120.624 53.0519 124.175 50.8824 125.045 50.4012C127.943 48.6775 128.172 44.7336 126.202 42.6877C123.893 40.7477 122.792 40.6748 114.497 38.0529C113.475 37.7682 104.869 35.0491 104.849 26.4969C104.715 20.2642 110.368 14.0978 120.165 14.1485C122.957 14.1463 130.395 15.06 132.408 17.5959C132.706 18.0572 132.853 18.6001 132.831 19.1497V21.381C132.831 22.3609 132.474 22.8509 131.758 22.8509C130.06 22.6611 127.046 20.3856 120.928 20.4783C119.41 20.3988 112.14 20.6791 112.466 25.9893C112.371 30.1738 118.328 31.743 119.009 31.924C127.041 34.3451 129.727 34.7468 132.915 38.4524C136.691 43.363 134.655 49.1123 133.873 50.6881C129.67 58.9623 118.8 58.2892 118.614 58.2847V58.2847ZM127.471 81.4277C112.043 92.8424 89.6456 98.9184 70.5225 98.9184C44.7196 99.0889 19.7863 89.5842 0.62393 72.2729C-0.814711 70.973 0.454289 69.1919 2.20357 70.1828C23.4603 82.3638 47.5274 88.7641 72.0162 88.7484C90.3038 88.6502 108.392 84.9337 125.241 77.8126C127.837 76.709 130.038 79.534 127.471 81.4277V81.4277ZM133.902 74.0805C131.928 71.538 120.842 72.8931 115.878 73.4868C114.382 73.6567 114.129 72.3568 115.484 71.3967C124.312 65.1795 138.811 66.9606 140.476 69.0506C142.139 71.1407 140.024 85.6939 131.761 92.646C130.492 93.7208 129.278 93.1536 129.842 91.7411C131.701 87.0512 135.876 76.6252 133.902 74.0805Z" fill="black"/>
</g>
<defs>
<clipPath id="clip0_701_21">
<rect width="141" height="113" fill="white"/>
</clipPath>
</defs>
</svg>
