<svg width="118" height="118" viewBox="0 0 118 118" fill="none" xmlns="http://www.w3.org/2000/svg">
<path d="M20.0508 111.037H37.0363V94.0742H20.0508V111.037ZM5.85391 79.8773V94.0742H20.0508V79.8773H5.85391ZM113.298 40.7668C107.998 23.666 94.3078 10.0453 77.207 4.67538C38.0043 -7.56251 1.84375 21.5918 1.84375 58.9738H23.9227C23.9227 35.5121 47.2 17.3742 71.8832 26.3164C81.0328 29.6121 88.3617 36.941 91.6574 46.0676C100.669 70.7277 82.5078 93.959 59.0691 94.0051V94.0742H59V116.153C96.4742 116.153 125.559 80.0156 113.298 40.7668V40.7668ZM59.0691 94.0051V72.0414H37.0363V94.0742H59V94.0051H59.0691Z" fill="black"/>
</svg>
