<svg width="137" height="137" viewBox="0 0 137 137" fill="none" xmlns="http://www.w3.org/2000/svg">
<path d="M135.576 105.359C130.695 106.601 127.677 105.413 124.969 101.345C118.89 92.237 112.179 83.5461 105.703 74.6946C104.868 73.5493 104.001 72.4255 102.92 71.002C95.257 81.3412 87.6043 91.1881 80.4225 101.431C77.8537 105.091 75.1566 106.686 70.3616 105.391L99.1744 66.7207L72.3523 31.7964C76.9654 30.8974 80.1549 31.3576 82.9805 35.489C89.2205 44.6081 96.1026 53.2883 102.963 62.4716C109.867 53.3204 116.663 44.6295 123.085 35.5961C125.665 31.9356 128.437 30.5442 133.071 31.8928C129.561 36.5486 126.125 41.1296 122.668 45.6784C118.001 51.8113 113.42 58.0191 108.582 64.0236C106.859 66.1642 107.137 67.5556 108.679 69.5785C117.627 81.3412 126.467 93.2217 135.576 105.359ZM1.42273 66.0786C2.19336 62.2147 2.70711 58.276 3.77742 54.4871C10.1993 31.5503 36.529 22.0138 54.6173 36.2275C65.2134 44.5653 67.8463 56.3173 67.3219 69.5678H7.59844C6.69938 93.3394 23.8137 107.692 45.6266 100.371C53.2794 97.8026 57.7854 91.8089 60.0437 84.3167C61.189 80.5599 63.0834 79.9712 66.6155 81.0415C64.8066 90.4175 60.7073 98.2522 52.1448 103.154C39.3011 110.497 20.9666 108.12 11.3231 97.9204C5.62906 91.9266 3.21016 84.4665 2.13984 76.4071C1.9793 75.1227 1.6475 73.8597 1.39062 72.5861C1.41203 70.4169 1.42273 68.2477 1.42273 66.0786ZM7.70547 64.4838H61.6813C61.3281 47.2946 50.625 35.0823 35.9938 34.9753C19.9391 34.8468 8.40117 46.7701 7.70547 64.4838Z" fill="black"/>
</svg>
