<svg width="118" height="118" viewBox="0 0 118 118" fill="none" xmlns="http://www.w3.org/2000/svg">
<g clip-path="url(#clip0_701_114)">
<g clip-path="url(#clip1_701_114)">
<path d="M0 59C0 26.4153 26.4153 0 59 0C91.5847 0 118 26.4153 118 59C118 91.5847 91.5847 118 59 118C26.4153 118 0 91.5847 0 59Z" fill="black"/>
<path d="M47.1984 94.3969C53.7155 94.3969 58.9984 89.1139 58.9984 82.5969V70.7969H47.1984C40.6814 70.7969 35.3984 76.0801 35.3984 82.5969C35.3984 89.1139 40.6814 94.3969 47.1984 94.3969Z" fill="white"/>
<path d="M35.3984 59.0031C35.3984 52.4861 40.6814 47.2031 47.1984 47.2031H58.9984V70.8031H47.1984C40.6814 70.8031 35.3984 65.5199 35.3984 59.0031Z" fill="white"/>
<path d="M35.3984 35.4016C35.3984 28.8846 40.6814 23.6016 47.1984 23.6016H58.9984V47.2016H47.1984C40.6814 47.2016 35.3984 41.9184 35.3984 35.4016Z" fill="white"/>
<path d="M59 23.6016H70.8C77.317 23.6016 82.6 28.8846 82.6 35.4016C82.6 41.9184 77.317 47.2016 70.8 47.2016H59V23.6016Z" fill="white"/>
<path d="M82.6 59.0031C82.6 65.5199 77.317 70.8031 70.8 70.8031C64.283 70.8031 59 65.5199 59 59.0031C59 52.4861 64.283 47.2031 70.8 47.2031C77.317 47.2031 82.6 52.4861 82.6 59.0031Z" fill="white"/>
</g>
</g>
<defs>
<clipPath id="clip0_701_114">
<rect width="118" height="118" fill="white"/>
</clipPath>
<clipPath id="clip1_701_114">
<rect width="118" height="118" fill="white"/>
</clipPath>
</defs>
</svg>
