<svg width="120" height="120" viewBox="0 0 120 120" fill="none" xmlns="http://www.w3.org/2000/svg">
<path d="M19.4531 78.3632L31.2781 2.30323C31.3637 1.73942 31.625 1.21698 32.0248 0.810288C32.4245 0.403594 32.9424 0.133373 33.5046 0.0380945C34.0669 -0.0571842 34.6449 0.0273351 35.1563 0.27962C35.6677 0.531906 36.0866 0.939098 36.3531 1.44323L49.0681 25.2982L19.4531 78.3632ZM103.428 96.8182L92.1681 26.8232C92.0853 26.3326 91.8693 25.8742 91.5437 25.498C91.218 25.1218 90.7953 24.8424 90.3216 24.6901C89.8479 24.5379 89.3415 24.5188 88.8577 24.6348C88.3738 24.7509 87.9312 24.9977 87.5781 25.3482L16.5781 96.8182L55.8631 118.958C57.0747 119.639 58.441 119.996 59.8306 119.996C61.2203 119.996 62.5866 119.639 63.7981 118.958L103.428 96.8182ZM71.5031 35.7382L62.4031 18.3282C62.1735 17.8904 61.8285 17.5237 61.4055 17.2679C60.9825 17.0121 60.4975 16.8768 60.0031 16.8768C59.5087 16.8768 59.0238 17.0121 58.6008 17.2679C58.1777 17.5237 57.8327 17.8904 57.6031 18.3282L17.6531 89.9182L71.5031 35.7382Z" fill="#070707"/>
</svg>
