<svg width="118" height="118" viewBox="0 0 118 118" fill="none" xmlns="http://www.w3.org/2000/svg">
<g clip-path="url(#clip0_701_44)">
<path d="M69.085 13.5258L93.3488 27.5383C94.4766 26.3506 95.8656 25.442 97.4057 24.8846C98.9458 24.3273 100.595 24.1365 102.221 24.3273C103.848 24.5182 105.408 25.0855 106.777 25.9842C108.146 26.883 109.287 28.0884 110.11 29.5049C110.922 30.9241 111.393 32.5127 111.487 34.1453C111.58 35.7779 111.292 37.4098 110.647 38.9122C110.001 40.4146 109.015 41.7464 107.767 42.8025C106.518 43.8585 105.041 44.6099 103.453 44.9974V73.0174C105.046 73.396 106.529 74.1426 107.781 75.1975C109.034 76.2524 110.023 77.5862 110.667 79.092C111.311 80.5977 111.594 82.2335 111.492 83.8682C111.39 85.5028 110.907 87.0909 110.08 88.5049C109.245 89.9459 108.081 91.1685 106.683 92.0725C105.284 92.9765 103.691 93.5361 102.034 93.7054C100.378 93.8748 98.7047 93.6491 97.1521 93.0468C95.5996 92.4445 94.2119 91.4828 93.1029 90.2405L68.9867 104.165C69.4665 105.61 69.6269 107.142 69.4566 108.656C69.2864 110.169 68.7896 111.628 68.0007 112.93C67.2117 114.233 66.1493 115.349 64.887 116.201C63.6246 117.053 62.1923 117.621 60.6891 117.865C59.1858 118.109 57.6474 118.024 56.1802 117.616C54.713 117.208 53.3519 116.486 52.1909 115.5C51.0299 114.514 50.0968 113.288 49.456 111.907C48.8152 110.525 48.4819 109.021 48.4793 107.498C48.4793 106.49 48.6218 105.482 48.9119 104.504L24.6433 90.506C23.5135 91.6864 22.1244 92.5875 20.586 93.1378C19.0476 93.6881 17.4021 93.8726 15.78 93.6766C14.1579 93.4807 12.6038 92.9096 11.2407 92.0087C9.87758 91.1078 8.74303 89.9019 7.92691 88.4864C7.1108 87.0709 6.63555 85.4848 6.53882 83.8538C6.44209 82.2228 6.72655 80.5916 7.36964 79.0896C8.01274 77.5876 8.9968 76.256 10.2439 75.2004C11.4909 74.1447 12.9667 73.3939 14.5543 73.0076L14.5592 44.9875C12.967 44.6062 11.4858 43.8588 10.2332 42.8047C8.98053 41.7505 7.99103 40.4188 7.3433 38.9152C6.69557 37.4116 6.40747 35.7777 6.5019 34.1433C6.59633 32.5089 7.07068 30.919 7.88725 29.5C8.70692 28.0827 9.84559 26.876 11.2129 25.9754C12.5803 25.0749 14.1387 24.5054 15.7645 24.3122C17.3902 24.1189 19.0387 24.3072 20.5791 24.8621C22.1194 25.4169 23.5093 26.3231 24.6383 27.5088L48.9168 13.4963C48.4524 11.9277 48.3604 10.2723 48.6484 8.66188C48.9363 7.05148 49.5961 5.5305 50.5753 4.21998C51.5544 2.90946 52.826 1.84557 54.2887 1.11296C55.7515 0.380362 57.365 -0.000728078 59.0009 1.94137e-05C60.6405 -0.00313224 62.2582 0.377491 63.7243 1.11144C65.1905 1.84539 66.4646 2.91229 67.4446 4.2268C68.4246 5.54131 69.0834 7.06693 69.3683 8.68163C69.6531 10.2963 69.5561 11.9553 69.085 13.5258V13.5258ZM66.5529 17.8377C66.4628 17.9376 66.3677 18.0328 66.2678 18.1229L98.0343 73.1404C98.1622 73.0961 98.3097 73.0617 98.4375 73.0273V44.9679C97.0987 44.6359 95.8384 44.0434 94.7288 43.2241C93.6191 42.4049 92.6818 41.3749 91.9704 40.1932C91.259 39.0115 90.7874 37.7012 90.5827 36.3371C90.378 34.973 90.4441 33.582 90.7773 32.2435L90.8708 31.8895L66.5529 17.8377V17.8377ZM51.7292 18.1278L51.4342 17.8328L27.1163 31.8551C27.499 33.1807 27.6167 34.5686 27.4628 35.9397C27.3089 37.3107 26.8863 38.638 26.2192 39.8457C25.5521 41.0534 24.6536 42.1178 23.575 42.9782C22.4964 43.8385 21.2589 44.4778 19.9331 44.8597L19.5594 44.9629V73.0273L19.9724 73.1404L51.739 18.1229L51.7292 18.1278V18.1278ZM61.9362 20.6205C60.0187 21.1712 57.9881 21.1712 56.0755 20.6205L24.3138 75.6331C25.7593 77.0245 26.782 78.8044 27.2638 80.7514H90.7429C91.2198 78.7945 92.2523 77.0098 93.7077 75.6184L61.9362 20.6205ZM66.784 100.403L90.9396 86.4498C90.8675 86.2198 90.8052 85.9868 90.7528 85.7516H27.2491L27.1458 86.1597L51.4293 100.182C52.4087 99.1627 53.5846 98.3526 54.8861 97.8008C56.1875 97.2489 57.5873 96.9668 59.0009 96.9714C62.0837 96.9714 64.8518 98.294 66.784 100.403Z" fill="black"/>
</g>
<defs>
<clipPath id="clip0_701_44">
<rect width="118" height="118" fill="white"/>
</clipPath>
</defs>
</svg>
