<svg width="129" height="129" viewBox="0 0 129 129" fill="none" xmlns="http://www.w3.org/2000/svg">
<g clip-path="url(#clip0_701_63)">
<path d="M26.0377 56.6735C22.3077 58.428 12.4356 66.3263 10.5342 68.6664C8.5595 71.0065 7.97465 67.3502 10.0222 61.2805C11.6306 56.3808 15.7264 49.7259 22.6003 44.022C26.6222 40.7312 35.4711 35.978 40.8824 33.1988C41.9796 32.6136 56.1665 26.6171 68.8179 23.6189C69.9151 23.3263 67.5018 25.447 67.1359 26.6171C65.2345 32.1749 27.2803 56.015 27.2803 56.015L26.0377 56.6735ZM79.4947 123.733C80.1528 127.682 79.5679 127.974 75.4729 128.486C71.3775 128.998 68.3792 127.462 67.2824 126.439C66.1852 125.414 65.9662 123.148 67.063 121.1C67.7215 119.784 68.3796 119.345 68.7454 117.736C69.1109 116.201 69.4035 115.835 69.6958 115.25C69.988 114.738 70.0616 114.226 70.1345 110.642C70.2077 107.059 70.1345 100.331 70.5003 97.4794C70.8662 94.5544 83.5176 98.7956 83.5176 98.7956C83.5176 98.7956 80.519 106.255 79.7148 108.083C78.9102 109.911 78.9835 113.421 78.9835 114.153C78.9835 114.884 78.6912 116.346 78.4715 116.42C78.2521 116.492 79.2028 118.394 78.7637 119.491C78.4711 120.515 79.4218 123.148 79.4947 123.733V123.733ZM84.3215 11.9182C83.8824 9.1393 84.3215 3.65408 84.9063 2.77698C86.7349 0.290354 96.3877 -0.00189468 98.4356 2.9231C99.313 4.2393 99.2398 7.31078 99.0937 9.28543C98.9475 11.2597 98.4356 15.5013 98.3623 16.8911C98.2894 17.915 87.6856 19.5235 85.3454 16.7446C84.687 16.0136 84.3215 11.9182 84.3215 11.9182V11.9182ZM105.821 116.639C110.282 119.857 113.719 120.442 115.986 121.612C118.253 122.782 117.668 125.049 113.865 125.707C110.794 126.292 105.968 125.122 102.75 125.122C99.5324 125.122 92.3655 125.488 90.4641 124.172C88.2704 122.636 89.2208 119.784 89.2208 119.784C89.806 118.175 91.2683 114.591 90.8296 111.666C90.3908 108.741 89.8056 107.133 88.7088 104.427C87.612 101.721 86.8077 95.0664 87.8317 94.7006C88.8556 94.3347 88.5627 94.7006 89.8792 94.9928C91.1954 95.2851 92.6581 95.7242 95.5102 95.7242C98.3623 95.7242 101.507 95.2851 102.604 95.066C103.701 94.8467 104.578 94.627 104.212 96.8942C103.847 99.1611 102.75 103.403 102.677 106.694C102.604 109.984 102.604 113.787 102.823 114.445C103.042 115.103 104.651 115.835 105.821 116.639V116.639Z" fill="white"/>
<path d="M90.1655 19.2349C82.1214 26.1824 66.5447 28.0834 43.4362 37.0053C37.5127 39.2722 21.7169 46.0732 17.9141 53.1669C30.7116 45.781 35.4651 55.9458 36.4887 66.4032C37.4391 76.2024 42.3391 81.3218 54.9172 81.0289C67.8612 80.7366 71.8102 88.2686 75.3933 97.1176C82.3405 63.2584 93.4563 56.6771 100.622 50.9C115.834 38.5408 97.1126 16.7482 90.1655 19.2349Z" fill="black"/>
<path d="M90.1689 19.2344C70.8629 25.9622 51.776 27.6442 29.3256 41.4657C23.9872 44.7566 12.7253 52.2154 10.5312 66.4759C18.7214 57.4076 37.6619 45.9999 60.8439 38.7601C72.5446 35.1034 81.101 32.6904 91.4851 28.6682C90.7541 23.9875 90.7541 22.1594 90.1689 19.2344V19.2344Z" fill="black"/>
<path d="M114.814 59.3053C114.814 59.3053 113.424 64.0588 110.645 65.5947C110.645 65.5947 108.598 66.326 104.503 64.0591C103.333 63.401 102.455 61.1341 102.528 60.4024C102.601 58.6472 103.698 57.8429 103.698 57.8429C103.698 57.8429 104.869 55.8683 106.258 55.9415C107.648 56.0144 109.988 56.2338 110.719 55.5757C111.377 54.8443 114.96 56.8919 114.814 59.3053V59.3053ZM84.9772 13.307C84.9772 13.307 84.6849 17.037 84.1729 19.3767C84.0997 19.8158 81.906 20.0348 80.2969 20.6933C83.3684 29.4686 101.87 29.3954 104.284 25.081C103.113 24.2767 100.773 23.0334 99.6765 22.5947C98.5793 22.1556 98.6525 22.2289 98.5793 20.1813C98.5064 18.1334 98.3599 14.331 98.2134 13.307C98.0673 12.2831 86.7321 12.2831 84.9772 13.307Z" fill="white"/>
<path d="M85.7085 13.3111C85.7085 13.3111 85.7085 15.4319 85.4891 17.4795C85.4162 18.4302 85.343 19.015 85.1969 19.7464C85.1236 20.1854 87.6831 21.94 88.4145 25.8161C91.9247 33.6407 100.042 29.765 103.406 26.0354C102.236 25.2309 100.335 24.134 98.1409 23.2566C97.0437 22.8175 97.5557 21.8671 97.4828 19.8196C97.4095 17.7721 97.1169 14.7735 96.9708 13.6766C96.824 12.5798 87.4638 12.2872 85.7085 13.3111V13.3111Z" fill="black"/>
<path d="M84.9797 13.307C84.9797 13.307 84.9065 14.6236 84.6875 16.1591C85.6378 17.1095 86.8812 18.426 87.8322 19.2306C88.4903 19.8158 90.0988 19.7426 91.5618 19.7426C92.878 19.7426 94.0481 19.8887 94.56 19.5965C95.7305 19.0112 97.4122 17.5489 98.3629 16.4517C98.29 15.1355 98.2167 13.8922 98.1438 13.307C98.0699 12.2831 86.7347 12.2831 84.9797 13.307V13.307Z" fill="white"/>
<path d="M91.6325 18.8613C90.7547 18.8613 89.7307 18.7884 88.9265 18.6419C88.5606 18.5691 88.1951 18.3497 87.9025 18.2032C87.3906 17.8374 86.8786 17.399 86.2941 16.9599C85.1237 16.0824 85.0508 15.5705 85.0508 15.3515C85.5628 10.7441 84.9043 6.86836 84.9043 6.86836C84.9043 6.86836 84.3923 4.8937 87.1712 4.38173C89.9501 3.86976 91.6321 3.79688 91.6321 3.79688C91.6321 3.79688 93.3874 3.79687 96.093 4.38173C98.8719 4.8937 98.3599 6.86836 98.3599 6.86836C98.3599 6.86836 97.7018 10.7441 98.2138 15.3515C98.2138 15.5705 98.1409 16.0824 96.9705 16.9599C95.9465 17.6912 95.1423 18.4955 94.3381 18.6419C93.5335 18.7884 92.5096 18.8613 91.6325 18.8613V18.8613Z" fill="white"/>
<path d="M91.6338 1.89844C86.8074 1.89844 85.8563 3.21463 84.4668 4.67731C84.1746 5.0428 84.3936 7.23682 84.9059 11.9171H85.564C85.564 11.9171 85.1249 10.6005 85.1982 9.06498C85.2714 7.52942 85.564 7.60267 85.3443 7.23682C85.0521 6.79773 84.4669 6.06639 85.7834 5.33541C87.0996 4.60407 89.1471 5.92026 91.6338 5.9935C94.12 5.92026 96.2408 4.60407 97.557 5.33541C98.8732 6.06639 98.2883 6.79773 97.9961 7.23682C97.7035 7.67555 98.069 7.52906 98.1422 9.06498C98.2151 10.6005 97.7764 11.9171 97.7764 11.9171H98.4345C98.8732 7.23682 99.1658 5.18928 98.9464 4.82343C97.7031 3.21463 96.4602 1.97132 91.6338 1.89844V1.89844ZM114.815 59.5241C114.815 59.5241 113.426 63.9851 110.72 65.5206C110.135 65.2284 110.208 64.7896 109.696 64.1312C109.55 63.9122 109.038 63.7653 108.819 63.5463C108.6 63.327 108.673 62.9611 108.307 62.6689C108.014 62.3763 107.795 62.5956 107.502 62.3763C107.21 62.084 107.137 61.7182 106.918 61.4992C106.771 61.3527 106.186 61.2798 106.04 61.1333C105.674 60.7675 102.457 60.1094 102.603 59.378C102.895 58.2808 103.481 57.4766 103.481 57.4766C103.481 57.4766 104.87 55.4291 106.259 55.502C107.649 55.5752 108.965 55.8678 109.696 55.2097C110.501 54.478 115.035 57.184 114.815 59.5241Z" fill="white"/>
<path d="M105.311 27.2037C105.311 27.2037 109.918 26.1065 113.063 29.1051C116.208 32.1766 115.988 35.9791 115.038 38.3192C115.842 39.2699 117.305 41.9023 116.208 45.047C121.034 49.1421 118.914 55.4315 114.599 59.5999C114.599 59.5999 113.575 55.797 109.48 55.5777C109.626 54.1153 105.677 52.9449 107.505 49.1421C104.727 48.484 104.8 46.5826 104.361 44.2428C103.995 41.9023 105.311 27.2037 105.311 27.2037V27.2037Z" fill="white"/>
<path d="M103.628 29.2495C103.628 29.2495 108.966 26.5438 112.111 29.6153C115.255 32.6868 114.377 36.0505 113.427 38.3907C114.231 39.341 116.133 42.0473 114.963 45.2646C114.743 45.9959 113.134 45.9959 111.964 47.8973C114.889 46.2149 116.718 46.654 117.376 48.7744C118.4 52.0653 116.132 56.0142 114.158 58.2082C114.158 58.135 114.085 58.0618 114.085 57.9889C113.793 59.0861 113.427 61.2065 111.233 63.5466C110.136 64.7167 109.258 64.5706 108.015 64.278C106.553 63.9121 106.041 63.2537 103.993 62.1572C102.823 61.4991 103.481 60.6945 103.481 60.0364C103.481 59.8903 103.627 59.6706 103.847 59.3783C103.993 59.0125 104.432 58.428 105.09 57.7695C105.09 57.7695 106.041 56.4533 107.431 56.5262C108.82 56.5994 110.282 56.3072 110.648 55.9414C110.648 53.3818 107.723 53.3086 108.747 48.9209C108.82 48.7016 109.186 48.3357 110.356 48.1896C108.6 47.8237 107.796 47.7505 106.553 46.5808C105.675 45.7766 105.017 44.7526 104.797 43.4364C104.359 41.1695 103.628 29.2495 103.628 29.2495V29.2495Z" fill="black"/>
<path d="M88.1964 24.6475C87.7577 24.0623 85.4908 21.1373 81.176 19.9672C79.9327 19.6014 79.1284 20.6253 77.8855 21.3567C77.5196 21.1373 75.9108 20.406 75.0334 20.9176C74.1559 21.4292 73.5711 21.9415 72.6932 22.307C72.2541 22.0877 71.0844 22.0877 70.1337 22.4531C69.183 22.7458 67.7203 23.4038 66.3309 25.3053C65.4534 28.45 81.8341 26.1095 81.8341 26.1095L88.1964 24.6475Z" fill="white"/>
<path d="M88.3374 24.6411C85.9969 23.8365 86.3628 21.1309 81.1705 20.6922C80.1466 20.6189 79.4885 21.4232 78.7571 21.9351C79.123 22.301 79.4885 22.8858 79.7078 23.4707C79.0497 22.7397 77.8797 21.7886 76.7092 21.5693C75.6124 21.3503 74.8811 22.1545 73.711 22.7397C73.93 22.9587 74.1497 23.3246 74.442 23.7637C73.418 23.1056 72.6871 22.8862 71.2976 23.3978C70.3469 23.6901 68.5188 24.4946 67.1293 26.4693C66.2519 29.614 81.9015 26.1034 81.9015 26.1034L88.3374 24.6411Z" fill="black"/>
<path d="M102.085 25.8134C102.085 25.8134 102.085 25.0088 102.012 24.2778C102.012 24.1317 101.427 23.7659 101.427 23.6198L101.281 23.4733C101.281 23.4733 102.451 22.8152 103.329 23.181C104.279 23.4733 104.791 24.7166 104.791 24.7166C106.473 24.1317 106.619 24.7898 107.424 25.6673C109.179 25.3014 109.398 25.9595 110.495 27.5687C110.495 27.5687 109.179 27.3493 106.62 27.7877C104.133 28.1532 102.085 25.7402 102.085 25.8134V25.8134Z" fill="white"/>
<path d="M101.799 25.4523C101.799 25.4523 102.237 25.0864 102.091 25.0132C102.895 24.5744 103.992 24.0628 104.504 25.4523C106.186 24.867 106.406 25.6716 107.21 26.5494C109.257 25.5987 109.403 26.7684 109.55 27.2804C108.892 27.2804 107.941 27.3537 106.625 27.4998C104.139 27.8656 101.725 25.379 101.799 25.4523Z" fill="black"/>
<path d="M76.9355 23.6172C76.9355 23.6172 81.1038 25.0795 84.614 24.8601C88.1242 24.5679 94.1207 24.2753 97.3383 26.1767C97.3383 26.1767 100.629 25.0063 103.701 25.8108C106.772 26.6151 112.403 31.8806 110.721 37.4383C110.575 37.8042 109.624 38.389 108.527 38.7549C108.527 38.7549 109.113 41.2411 108.089 43.2887C107.065 45.2633 104.798 49.0661 104.725 54.3313C104.652 55.2087 104.506 57.0369 104.359 57.9144C98.6549 57.6954 89.8795 55.5742 81.2503 55.7207C81.3232 54.7704 81.3964 54.1851 81.4697 53.2344H81.6887C81.2499 50.8211 81.1038 49.5777 80.6647 47.7496C77.8859 45.9947 74.9605 43.9471 72.4746 40.0711C70.0612 36.195 76.9355 23.6172 76.9355 23.6172V23.6172ZM105.163 63.107C105.163 63.107 109.697 79.3418 104.359 86.1429C104.359 86.1429 105.163 89.2873 103.335 92.6514C103.043 94.1137 102.677 95.4302 102.458 96.8925C101.507 102.962 99.8978 105.522 99.4591 115.248L95.0711 115.175C95.0711 115.175 94.5591 108.155 93.0235 104.425C92.1464 102.305 88.7087 99.452 88.8556 96.6003C89.0017 94.4063 89.4404 92.5781 93.1704 89.6527C93.4626 85.4116 89.2211 81.389 89.8795 65.5932L105.163 63.107Z" fill="white"/>
<path d="M103.841 62.4485C105.011 69.9077 107.716 80.9503 102.817 86.3615C103.106 87.7337 103.13 89.1484 102.889 90.5298C102.743 91.4073 102.451 92.358 102.085 93.3816C101.354 95.1369 101.061 97.6964 100.842 99.2319C99.8912 105.302 99.8912 105.595 99.4525 115.321L95.0644 115.247C95.0644 115.247 94.5525 108.227 93.0169 104.498C92.1398 102.377 90.3113 100.549 90.1651 97.6967C90.019 95.5031 91.5546 91.1154 95.2113 91.2615C94.9919 82.4129 90.8965 84.1679 89.7997 65.7394L103.841 62.4485ZM76.9289 23.6172C76.9289 23.6172 78.5377 24.1292 80.2926 24.2753C82.0479 24.4214 83.9493 24.2753 85.631 24.202C89.1412 23.9098 94.1141 23.5439 97.4049 25.4454C97.4049 25.4454 99.2331 24.8601 101.208 25.0063C102.085 25.0795 102.963 25.8108 103.987 26.1035C107.204 26.9077 110.276 32.246 108.886 37.0728C108.74 37.4387 107.716 37.0728 106.546 37.4387C106.765 38.4626 106.912 40.8027 105.741 43.289C104.498 45.7756 102.889 48.9932 103.182 55.1362C95.5032 54.7704 92.0662 54.2587 84.4606 53.8929C83.8025 51.1869 83.3634 48.4813 83.2905 47.0918C84.3144 46.5799 84.8989 46.1415 85.7039 45.2637C83.5102 45.6295 82.6324 45.483 81.3158 44.7517C79.9996 44.0204 77.6595 41.6802 76.4894 40.1447C76.3433 39.9982 75.5391 42.4112 73.7109 42.4848C73.0525 41.5341 75.8313 38.8281 75.3194 37.8045C73.4916 34.0746 76.9289 23.6172 76.9289 23.6172V23.6172Z" fill="black"/>
<path d="M104.428 56.3794C104.428 56.3794 104.574 59.0122 104.574 59.6703C104.574 60.4016 105.159 62.5953 105.232 63.6192C104.428 65.0087 100.918 68.1534 94.5554 69.3235C88.2663 70.6397 79.9297 60.7675 79.9297 60.7675C80.1491 59.8168 80.8804 57.0375 81.3924 55.5752C81.4656 55.4291 81.6117 55.0633 81.6117 54.9171C82.2702 53.9664 104.428 56.3794 104.428 56.3794V56.3794Z" fill="white"/>
<path d="M102.818 56.6059C102.818 58.4341 103.11 59.7506 103.33 60.9207C103.695 63.0415 104.28 64.4309 104.28 65.8204C104.28 70.0616 98.7222 69.3302 94.0415 69.4767C87.7524 70.7932 82.4141 60.9207 82.4141 60.9207C82.8528 59.2387 83.1454 57.3376 83.8035 55.7285C83.8764 54.851 84.0229 53.7542 84.0957 53.2422C93.0176 53.2422 99.3067 53.7542 102.963 54.1193C103.11 54.9239 102.964 56.3133 102.818 56.6059Z" fill="black"/>
<path d="M95.7986 66.0362C95.7986 66.0362 91.923 57.4069 80.2951 59.9668C77.5166 67.7914 73.7867 76.7865 76.2001 86.5126C73.7867 89.8034 71.0078 91.6319 71.0078 97.7013C71.0078 103.771 71.3004 104.795 71.3004 104.795L79.8564 105.234C79.8564 105.234 82.6353 101.651 83.7321 97.7749C84.0247 96.6777 84.3173 94.7034 84.098 92.4365C84.3902 91.9978 85.6335 90.9742 85.78 88.9996C85.78 88.9996 89.9483 86.8059 92.3617 81.4675C94.6289 76.64 94.0437 72.4717 95.7986 66.0362Z" fill="white"/>
<path d="M95.7955 66.0361C95.5765 65.2319 92.6511 57.334 81.8279 59.6738C75.4659 76.64 77.8061 83.6604 78.7564 86.7316C74.4416 92.2161 72.4673 93.3861 73.3452 104.502H79.0494C81.6818 100.334 82.267 98.7978 82.4131 93.3133C82.4131 93.0939 81.6089 93.752 81.0237 94.4833C81.4628 92.2164 82.7057 91.7777 83.6564 90.3883C84.0952 89.803 84.4606 88.9256 84.4606 87.7555C89.5797 84.3185 91.4811 80.0037 92.5779 75.5428C93.4557 72.4717 94.4793 67.4256 95.7955 66.0361V66.0361Z" fill="black"/>
<path d="M77.7343 54.2656C77.7343 54.2656 79.7089 54.3385 81.4642 54.9237C83.1463 55.5086 83.1463 55.8741 83.8044 56.6058C84.4624 57.3375 86.0713 58.4339 85.779 59.5308C85.6325 60.116 85.267 60.2621 84.7551 60.7741C84.5357 60.9934 82.9265 62.7484 82.561 62.9677C82.3417 63.1139 82.0491 63.3336 81.8297 63.4797L80.7329 64.211C80.0015 64.5769 79.4896 64.7963 78.6853 64.723C78.6853 64.723 76.8572 64.6498 75.6867 63.4068C75.6867 63.4068 75.5406 62.8216 75.8332 62.5294C75.8332 62.5294 74.2973 61.2128 73.8586 60.3353C73.4195 59.4582 73.4195 58.2149 73.7124 57.5568C73.8586 56.898 76.7103 55.0698 77.7343 54.2656V54.2656ZM79.5628 125.42L79.3434 127.249C79.3434 127.249 78.6853 128.053 73.7857 127.98C68.8128 127.907 67.4966 126.371 67.0579 125.567L66.7656 123.665C66.7656 123.665 67.7163 122.276 67.9357 122.276C69.5445 122.422 75.0294 124.616 78.8322 125.201C79.197 125.201 79.2698 125.347 79.5628 125.42ZM90.1663 121.691C90.1663 122.495 90.0931 122.495 90.0931 123.299C90.9705 123.958 93.1649 124.323 97.3329 124.25C103.403 124.104 109.034 126.078 115.908 124.908L115.981 123.592L115.323 123.519L90.9705 121.544L90.1663 121.691Z" fill="white"/>
<path d="M95.5066 124.248H97.3348C101.284 124.102 105.014 124.98 109.035 125.199C111.156 125.126 113.789 124.614 113.57 123.078L92.801 121.323C91.5577 122.712 92.508 123.882 95.5066 124.248V124.248ZM71.6665 93.4609C72.3246 93.8996 76.7855 96.5323 84.0253 96.1665C83.8788 97.5559 83.952 100.262 80.7344 105.015C79.1256 107.355 77.7358 111.451 77.4436 116.643C77.5168 117.813 78.1749 118.837 77.2975 120.372C77.5897 121.323 78.7598 123.224 79.345 124.394C79.9299 125.565 80.2225 126.881 76.3464 126.954C72.3975 127.027 66.0351 126.588 66.913 123.517C67.352 121.908 68.595 120.226 68.7415 119.568C68.8876 118.91 68.8876 116.936 70.1306 115.619C71.2277 111.963 70.8619 108.452 70.6429 105.162C70.277 101.724 70.2038 96.2397 71.6665 93.4609V93.4609ZM78.4675 33.8605C83.6598 26.913 79.2718 21.3556 70.9355 23.0373C67.5714 23.6954 64.2077 26.0359 63.988 30.277C62.8911 30.4232 60.4049 30.5693 59.1615 35.1034C58.2112 38.6137 57.6992 39.2718 56.0168 41.0267C54.92 42.27 56.0901 44.8295 56.8943 46.658C59.6003 52.9471 67.9369 53.532 73.5679 58.2855C75.4693 57.7735 77.4436 55.6531 78.0288 54.2637C73.2753 48.6323 74.2989 46.4387 72.3975 43.5137C74.4454 42.782 79.1256 39.9302 78.4675 33.8605Z" fill="white"/>
<path d="M77.4455 33.4215C77.7377 32.9824 78.2497 32.0321 78.4694 31.6662C78.5427 31.593 79.3469 32.9824 79.4201 32.9096C81.3944 29.6916 81.9064 25.0113 79.6391 24.5726C79.1271 24.4993 78.1768 24.2803 77.3722 23.9874C75.9099 23.4754 74.5937 23.4754 72.2532 23.9145C69.0356 24.4993 65.818 26.8395 65.818 30.2036C65.818 30.4229 68.0845 31.081 68.743 33.787C67.6458 32.2511 65.7444 30.5691 63.4775 32.0317C61.0641 33.5673 62.3074 37.0775 59.0898 40.7338C57.9927 41.9772 58.1391 43.4398 59.3089 46.3648C61.2103 50.9722 70.2053 53.4585 75.105 57.8462C76.275 57.3342 77.0793 56.1641 77.6645 55.2867C74.3736 51.8497 73.0571 48.6317 72.1067 46.2916C70.9367 43.586 69.6201 42.0504 67.0606 40.0021C68.3772 40.5141 69.4011 41.0261 69.9856 41.4648C70.6437 41.9035 71.5944 41.9768 72.4722 41.6842C75.6173 40.5881 77.2993 36.2 77.4455 33.4215Z" fill="black"/>
<path d="M109.255 34.5894C109.035 37.3683 106.988 35.9789 105.891 35.4669C103.697 34.5162 101.503 33.8581 98.9436 33.8581C96.384 33.8581 93.0932 34.0774 90.2414 34.8088C86.2925 35.9056 85.1221 35.8327 83.3672 34.9549C81.6122 34.0042 78.5411 31.6641 78.5411 31.6641C78.5411 31.6641 78.4679 32.3954 79.1992 33.3461C80.1495 34.5162 82.2707 35.9789 85.1224 36.9292C86.5119 37.3683 87.6091 37.0753 88.8524 36.7831C95.3608 35.1743 102.235 34.8817 108.012 38.3919C108.304 38.538 109.328 38.0993 109.767 37.4412C110.352 36.4908 109.255 34.5894 109.255 34.5894V34.5894Z" fill="white"/>
<path d="M75.9844 62.4531C76.5692 62.819 77.3006 63.0383 78.1048 63.6964C78.1048 63.6964 77.4467 63.6964 77.1544 63.4042C76.7886 63.1848 76.0573 62.5267 75.9844 62.4531V62.4531Z" fill="white"/>
<path d="M97.1184 4.46134C96.8991 3.80324 95.2899 2.63281 91.5607 2.63281C87.5385 2.63281 86.3684 3.87612 86.2955 4.53422C86.2955 4.75359 86.0029 7.09409 85.9297 8.04443C85.9297 8.04443 85.9297 9.2145 86.0026 10.9694C86.0758 12.1395 86.3684 12.7976 86.5145 14.3335C86.6607 15.942 87.0998 16.9659 87.904 18.2825C88.2698 18.5015 88.5621 18.7212 88.9279 18.7944C90.3906 19.0867 92.9501 19.1599 94.3395 18.7944C95.1438 18.5751 96.1677 17.1856 96.3871 15.9423C96.6793 14.4068 96.9719 13.3096 97.0452 12.3592C97.1913 11.4089 97.2645 9.28774 97.3374 8.70253C97.5572 7.09409 97.1913 4.60746 97.1184 4.46134V4.46134Z" fill="black"/>
<path d="M89.4405 94.8516C89.4405 94.8516 93.3165 96.5336 102.896 95.0709C102.896 95.0709 100.191 108.673 101.434 115.474C101.434 115.474 102.677 117.229 111.892 120.593C111.892 120.593 115.987 121.617 115.84 123.665C115.84 123.665 115.987 124.103 111.014 123.957C106.042 123.81 101.361 122.933 98.0701 122.933C94.7792 122.933 91.269 123.079 90.6841 122.129C90.026 121.251 90.8303 118.984 91.781 117.667C92.8053 116.278 92.5123 115.254 92.4394 112.768C92.2193 106.26 87.2465 99.5318 89.4405 94.8516V94.8516Z" fill="white"/>
<path d="M88.6311 96.0923C88.1192 96.8237 88.704 99.6022 89.4354 102.308C90.1667 105.014 91.7759 106.623 92.1413 111.084C92.5068 115.471 92.5801 116.056 91.3368 118.616C90.0935 121.175 89.728 123.515 94.0424 123.588C98.3568 123.662 100.697 123.515 105.085 124.174C109.473 124.832 111.009 125.051 113.422 124.686C115.835 124.32 116.347 123.515 115.323 122.784C114.299 122.053 110.058 121.249 108.23 119.786C106.474 118.469 101.502 116.275 101.429 115.691C101.21 113.716 101.136 106.549 101.502 104.209C101.868 101.869 102.379 98.505 102.526 97.6275C102.672 96.7501 103.403 95.8722 102.16 96.1649C100.917 96.4571 96.2368 97.1156 92.7266 96.8962C89.2163 96.6772 88.8509 95.8726 88.6311 96.0923V96.0923Z" fill="black"/>
<path d="M83.7344 51.3359C83.7344 51.8479 89.4386 54.6997 92.583 55.2849C95.7277 55.8697 102.309 55.2849 103.333 55.0655L103.186 56.0895C103.186 56.0895 95.3618 57.2595 89.3654 55.6507C83.3685 54.0419 84.027 53.6761 84.027 53.6761L83.7344 51.3359Z" fill="white"/>
<path d="M71.5167 113.718C72.3942 114.157 75.5389 114.961 77.5865 114.523C77.8787 114.449 77.5865 109.477 78.391 107.21C79.5611 104.065 81.4625 101.505 82.3396 95.948C79.2681 95.6554 75.7583 94.8508 73.9298 94.2656C71.59 101.433 72.3946 107.575 71.5167 113.718V113.718ZM76.4167 118.326C76.9287 118.472 77.2942 119.056 77.4407 118.691C77.7329 118.033 76.9287 116.79 76.8555 115.912V115.839C76.1974 115.254 71.7365 115.181 72.0291 115.473C71.5171 116.424 70.7129 116.278 70.4206 118.179C70.2745 119.13 71.4446 118.326 72.5411 118.252C70.5668 119.568 68.2999 121.251 67.934 122.713C67.4953 124.761 68.2266 125.346 70.4206 126.443C72.322 126.882 74.5889 126.955 76.3439 126.882C78.3185 126.516 78.6844 125.566 78.0992 124.249C77.221 122.274 76.6361 119.715 76.4167 118.326V118.326Z" fill="black"/>
<path d="M77.2242 23.3281C79.6376 24.7176 83.0017 24.3521 84.2446 24.2788C84.5372 24.2788 87.4626 23.7669 87.6087 23.8397C87.9009 23.913 87.9009 24.1323 87.9009 24.1323C87.9009 24.1323 86.8041 24.7172 84.3178 24.8633C81.9777 25.0095 79.1988 24.8633 77.6633 24.1323C75.8347 23.3281 77.2242 23.3281 77.2242 23.3281ZM102.088 24.7176C102.527 25.0098 105.379 26.107 106.622 27.4232C107.719 28.5936 107.134 28.5204 106.915 28.2278C106.622 27.8619 104.355 26.3264 103.478 25.9609C102.6 25.5954 101.503 24.9369 101.503 24.7908C101.503 24.6447 102.088 24.7176 102.088 24.7176V24.7176Z" fill="white"/>
<path d="M76.8619 55.063C78.9827 54.9169 81.1767 55.4289 82.5662 56.8912C83.2975 57.6225 84.4676 58.4267 84.3214 59.1581C84.3214 59.3774 83.8824 59.9627 83.5172 60.4014C83.2979 60.6936 82.6398 61.3517 82.42 61.5715C82.1278 61.7908 81.1038 62.5954 80.8845 62.7415C80.6651 62.888 80.3725 63.2539 80.1531 63.3267C79.4222 63.6926 78.6176 63.4 77.8862 63.0345C77.1553 62.6686 78.0327 62.5954 77.2281 62.0105C75.2539 60.6211 74.1567 59.6701 74.9612 56.9644C75.0341 56.4524 75.8383 55.8672 76.8619 55.063V55.063Z" fill="black"/>
<path d="M23.6953 58.0654C27.8636 55.0671 49.4369 43.5862 54.6291 41.977C59.821 40.295 58.2122 38.3203 58.2122 38.3203C58.2122 38.3203 37.1509 47.3883 24.5728 55.2133" fill="white"/>
<path d="M85.9989 21.9375C87.9003 23.1808 92.6539 24.3509 93.9701 24.5702C95.2862 24.8625 97.407 23.1808 98.431 22.7421C99.5282 22.2301 101.43 21.9375 103.623 23.9122C103.843 24.1315 103.111 25.0822 103.111 25.0822C103.038 25.009 102.599 25.009 102.014 24.7164C101.429 24.4241 100.917 24.2044 100.04 24.2776C96.3831 24.7164 95.7982 25.9597 92.5806 25.228C89.363 24.4963 88.5584 23.9118 85.4141 24.0579" fill="black"/>
<path d="M85.9989 21.9375C87.9003 23.1808 92.6539 24.3509 93.9701 24.5702C95.2862 24.8625 97.407 23.1808 98.431 22.7421C99.5282 22.2301 101.43 21.9375 103.623 23.9122C103.843 24.1315 103.111 25.0822 103.111 25.0822C103.038 25.009 102.599 25.009 102.014 24.7164C101.429 24.4241 100.917 24.2044 100.04 24.2776C96.3831 24.7164 95.7982 25.9597 92.5806 25.228C89.363 24.4963 88.5584 23.9118 85.4141 24.0579" stroke="white" stroke-width="1.27126" stroke-miterlimit="10" stroke-linejoin="round"/>
<path d="M85.3407 22.1562C87.7541 23.1802 92.4344 24.277 93.7506 24.5696C95.0668 24.8622 97.1876 23.5457 98.2115 22.8876C100.04 21.7175 102.38 22.6682 103.477 23.9115C104.208 24.7158 104.501 25.2277 104.501 25.4471C104.501 25.7393 103.623 25.4471 103.623 25.4471C103.112 25.2277 102.526 25.1548 102.088 24.8619C101.503 24.5696 100.917 24.1309 100.04 24.2038C96.3837 24.6429 95.6523 25.8858 92.508 25.1545C89.3636 24.4231 88.559 23.765 85.1953 23.9841" fill="black"/>
<path d="M74.0093 90.4575C73.8632 90.3114 74.1554 90.1653 74.0093 90.1653C73.059 90.1653 71.7424 89.4339 71.0107 88.41C67.8663 83.8762 63.2589 80.878 54.9223 81.0973C42.417 81.3896 37.4441 76.2709 36.4938 66.4716C35.9818 61.1332 34.5191 55.941 31.5209 53.0156L29.7656 54.1128C33.1294 57.0378 34.2265 61.7913 34.9579 68.2998C36.128 78.0991 44.0258 82.6332 53.2403 82.7794C62.8202 82.9255 66.2572 84.9001 69.8403 89.7269C71.0103 91.2625 72.3269 91.7744 73.3505 91.9938L74.0093 90.4575Z" fill="white"/>
</g>
<defs>
<clipPath id="clip0_701_63">
<rect width="129" height="129" fill="white"/>
</clipPath>
</defs>
</svg>
