<svg width="143" height="143" viewBox="0 0 143 143" fill="none" xmlns="http://www.w3.org/2000/svg">
<path d="M114.221 11.9167H28.7789C27.3534 11.8848 25.9359 12.1391 24.6103 12.6646C23.2847 13.19 22.078 13.9759 21.0614 14.9758C20.0448 15.9757 19.2391 17.1693 18.6918 18.486C18.1445 19.8028 17.8669 21.2158 17.8752 22.6417V120.358C17.8669 121.784 18.1445 123.197 18.6918 124.514C19.2391 125.831 20.0448 127.024 21.0614 128.024C22.078 129.024 23.2847 129.81 24.6103 130.336C25.9359 130.861 27.3534 131.115 28.7789 131.083H114.221C115.645 131.107 117.059 130.847 118.381 130.319C119.703 129.791 120.906 129.004 121.921 128.006C122.936 127.008 123.742 125.817 124.292 124.504C124.842 123.191 125.125 121.782 125.125 120.358V22.6417C125.125 21.2181 124.842 19.8087 124.292 18.4957C123.742 17.1827 122.936 15.9924 121.921 14.9941C120.906 13.9958 119.703 13.2096 118.381 12.6812C117.059 12.1529 115.645 11.893 114.221 11.9167V11.9167ZM119.167 120.358C119.167 120.989 119.042 121.614 118.798 122.196C118.555 122.779 118.199 123.307 117.75 123.75C117.301 124.194 116.768 124.543 116.183 124.779C115.598 125.015 114.972 125.133 114.341 125.125H28.7789C28.1507 125.133 27.5273 125.015 26.9454 124.779C26.3634 124.542 25.8348 124.191 25.3906 123.747C24.9463 123.303 24.5955 122.774 24.3588 122.192C24.1221 121.61 24.0043 120.987 24.0123 120.358V22.6417C24.0043 22.0135 24.1221 21.3901 24.3588 20.8082C24.5955 20.2262 24.9463 19.6976 25.3906 19.2534C25.8348 18.8091 26.3634 18.4583 26.9454 18.2216C27.5273 17.9849 28.1507 17.8671 28.7789 17.8751H114.221C114.852 17.8672 115.479 17.9846 116.064 18.2207C116.649 18.4567 117.182 18.8065 117.631 19.2499C118.08 19.6934 118.436 20.2215 118.679 20.8037C118.922 21.386 119.048 22.0107 119.048 22.6417L119.167 120.358Z" fill="black"/>
<path d="M44.8653 113.206L58.2716 101.289L44.8653 89.3724V113.206V113.206ZM78.7682 59.5807C71.1456 59.7707 63.6024 61.1788 56.4245 63.7516V29.7891H44.5078V81.3286L52.9091 77.4557C61.0015 73.9477 69.6608 71.9292 78.4703 71.4974C84.4286 71.4974 85.9182 74.7745 85.9182 77.7536V113.504H97.8349V77.4557C97.9935 75.1494 97.6494 72.8361 96.8264 70.6757C96.0034 68.5154 94.7211 66.5595 93.0682 64.9432C91.1687 63.1324 88.9229 61.7239 86.4656 60.8025C84.0082 59.881 81.3901 59.4654 78.7682 59.5807V59.5807ZM77.4574 49.1536H89.3741C94.225 43.7592 97.2849 36.9941 98.1328 29.7891H86.2161C84.9744 36.8787 81.9616 43.5397 77.4574 49.1536V49.1536Z" fill="black"/>
</svg>
