<svg width="145" height="145" viewBox="0 0 145 145" fill="none" xmlns="http://www.w3.org/2000/svg">
<path d="M103.796 57.5046C96.1657 23.9129 78.1675 12.8748 76.2342 8.65167C74.1075 5.67313 71.8057 0 71.8057 0L71.7755 0.296042V0.374583H71.7694C71.7587 0.452827 71.7506 0.531414 71.7452 0.610208V0.700833H71.7332L71.7211 0.857917V1.015H71.703C71.6969 1.06333 71.6969 1.12375 71.6848 1.16604V1.29292H71.6727C71.6727 1.33521 71.6727 1.38354 71.6607 1.41979V1.54062H71.6486L71.6365 1.73396V1.74604L71.5821 2.04812V2.09646H71.57L71.5519 2.16896V2.27167H71.5338V2.40458H71.5036V2.51333H71.4734V2.64021H71.4492V2.755H71.425V2.85771H71.3888V2.94229H71.3646V3.05104H71.3405V3.13562H71.3102V3.21417H71.2921V3.30479H71.268L71.2619 3.32896V3.38937H71.2438L71.2377 3.42562V3.46187H71.2257C71.2193 3.48148 71.2152 3.50175 71.2136 3.52229L71.1532 3.64917V3.66125C71.1411 3.67382 71.1309 3.68807 71.123 3.70354V3.75187H71.0988V3.80021H71.0686V3.84854H71.0505V3.90896H71.0142V3.99354H70.99V4.01771H70.9659V4.06604H70.9417V4.1325H70.9175V4.18083H70.8813V4.24729H70.8571V4.29563H70.8269V4.34396H70.8088V4.40437H70.7786V4.45271H70.7544V4.48896H70.7302V4.53729H70.694V4.59167H70.6698V4.62792H70.6396V4.67625H70.6155V4.74271H70.5852V4.76687H70.5671V4.81521H70.5309V4.83937H70.5067V4.89979H70.4825V4.92396H70.4584V4.97229H70.4282V5.00854H70.41L70.398 5.03271V5.05687H70.3859L70.3738 5.08104V5.08708H70.3677C70.3634 5.10301 70.3551 5.11757 70.3436 5.12937V5.1475H70.3375L70.265 5.25625V5.26229C70.253 5.27437 70.2227 5.29854 70.2107 5.32271V5.33479H70.2046L70.1865 5.35292V5.37104H70.1744L70.1563 5.38917V5.39521H70.1502L70.1321 5.41937V5.44354H70.114L70.1019 5.45562V5.46771H70.0898C70.0898 5.47979 70.0777 5.47979 70.0777 5.48583V5.50396H70.0536L70.0415 5.52208V5.55833H70.0234V5.5825H69.9992V5.61875H69.975V5.66708H69.9448V5.61875H69.9146V5.64292H69.8905V5.67917H69.8602V5.7275H69.83V5.75167H69.8059V5.78792H69.7817V5.81208H69.7575V5.86042H69.7213V5.88458H69.6971V5.92083H69.6669V5.945H69.6427V5.97521H69.6125V6.03562H69.6005V6.05979H69.5642V6.09H69.54V6.10208H69.5159V6.12625H69.4857V6.18667H69.4615V6.21083H69.4313V6.235H69.4071V6.27125H69.3769V6.29542H69.3467V6.31958H69.3225V6.34375H69.2984V6.40417H69.2742V6.43438H69.238V6.45854H69.2138V6.48271H69.1836V6.51896H69.1594V6.54312H69.1292V6.58542H69.105V6.60958H69.0688V6.64583H69.0567V6.67H69.0325V6.69417H69.0023V6.71833H68.9782V6.75458H68.948V6.77875H68.9298L68.9238 6.79083V6.80292H68.9117L68.8875 6.82708L68.8634 6.84521V6.88146H68.8392V6.91167H68.815V6.93583H68.7909V6.96H68.7727L68.7546 6.97812V6.99625H68.7425L68.7305 7.00833V7.02646H68.7184C68.6882 7.06271 68.6761 7.08687 68.6338 7.12312C68.5236 7.19825 68.4205 7.28318 68.3257 7.37687L68.1927 7.47958V7.48562H68.1867C68.0889 7.56526 67.9902 7.64381 67.8907 7.72125V7.72729L67.4436 8.10187V8.09583H67.4315C67.0871 8.37979 66.7246 8.7 66.3077 9.05646V9.0625H66.3017C65.2807 9.95667 64.0663 11.1046 62.7069 12.4942L62.6163 12.5848L62.5921 12.609C54.3755 21.1096 41.4282 38.8237 40.0627 67.4492C39.9419 69.8175 39.9661 72.1194 40.099 74.3608V74.4152C40.7575 85.695 44.298 95.3254 48.7265 103.149V103.155C50.4907 106.273 52.3938 109.106 54.3211 111.644V111.65C60.979 120.441 67.7759 125.649 69.5098 126.911C72.1742 133.092 71.9265 143.701 71.9265 143.701L75.8173 145C75.8173 145 75.0259 134.723 76.1375 129.763C76.4819 128.21 77.2975 126.887 78.2461 125.763C79.9292 124.564 81.5373 123.262 83.0613 121.866C83.17 121.752 83.2305 121.649 83.3271 121.54C92.5165 112.973 109.681 91.8756 103.796 57.5046V57.5046Z" fill="black"/>
</svg>
