<svg width="107" height="107" viewBox="0 0 107 107" fill="none" xmlns="http://www.w3.org/2000/svg">
<g clip-path="url(#clip0_701_125)">
<g clip-path="url(#clip1_701_125)">
<path d="M7.8915 100.004L7.88232 99.9949L7.85938 99.9766L7.8915 100.004Z" fill="black"/>
<path d="M26.1704 107H81.3646H81.3913C88.5158 106.848 94.9313 103.799 99.51 98.975C104.503 93.8479 107 88.3196 107 82.3454V25.4125V25.3947C106.906 18.453 103.888 12.2203 99.1088 7.84667C93.8479 2.675 88.1413 0 82.0333 0H25.8583H25.8405C18.7874 0.102542 12.4298 3.08962 7.89125 7.84667H7.89571L7.86896 7.86896C3.04504 12.1222 0 18.355 0 25.2921C0 25.3813 0 25.4705 0 25.5463V80.8296C0.445833 89.296 3.07179 95.6223 7.88233 99.9915C12.7687 104.294 19.153 106.929 26.1704 107ZM17.8333 47.9271V26.3042C18.19 23.4063 18.9925 21.2662 20.2408 19.9287C21.4892 18.5912 23.3171 17.6996 25.8138 17.2538H35.7558L71.3333 62.7733V17.2983H80.9188H80.9455C82.8046 17.4455 84.4854 18.2168 85.7783 19.3938C87.1604 20.5975 88.0967 22.2025 88.6317 24.1642V45.2075C88.9883 48.9525 91.6188 51.7167 96.5229 53.5C91.6188 54.4363 88.9883 57.0667 88.6317 61.3021V83.3263C88.0075 85.2879 87.1158 86.7592 85.7783 87.7846C84.4854 88.81 82.7467 89.4342 80.5621 89.7017H71.1104L35.7558 44.8508L35.6667 89.1667H25.145C23.3617 89.3004 21.7121 88.5425 20.2408 86.9375C18.725 85.2879 17.9225 83.2817 17.8333 80.8296V59.5633C16.7188 56.2196 14.2667 54.2133 10.4771 53.5C13.8208 52.8313 16.2729 51.0033 17.8333 47.9271Z" fill="black"/>
</g>
</g>
<defs>
<clipPath id="clip0_701_125">
<rect width="107" height="107" fill="white"/>
</clipPath>
<clipPath id="clip1_701_125">
<rect width="107" height="107" fill="white"/>
</clipPath>
</defs>
</svg>
