<svg width="121" height="121" viewBox="0 0 121 121" fill="none" xmlns="http://www.w3.org/2000/svg">
<g clip-path="url(#clip0_701_61)">
<path d="M85.3756 42.9464C85.9515 43.2361 86.4693 43.6291 86.9032 44.106L98.7461 38.8374L87.6947 27.892L85.2193 42.785L85.3756 42.9464ZM60.8025 32.9992C61.3777 33.8669 61.7389 34.8587 61.8562 35.8931L79.4869 43.3648C80.021 42.9557 80.6286 42.6528 81.2767 42.4725L84.1706 24.5745L73.4319 13.3115L60.8025 32.732V32.9992V32.9992ZM120.965 60.683L102.069 41.7868L89.2224 47.0503L120.803 60.4712C120.803 60.4712 121.071 60.683 120.965 60.683V60.683ZM117.804 63.7382L87.488 50.7862C87.0661 51.346 86.5365 51.8159 85.9305 52.1682C85.3245 52.5206 84.6541 52.7484 83.9589 52.8381L80.6969 72.788C81.67 73.7684 82.2187 75.0921 82.2245 76.4735L100.541 80.3152L117.33 63.6273V63.3147L117.804 63.7382ZM77.6417 46.6318L61.1655 39.6239C60.5971 40.4939 59.8143 41.2027 58.8924 41.6822C57.9705 42.1617 56.9406 42.3957 55.902 42.3615H54.8987L41.266 63.4206L77.6921 47.6301V47.6805C77.6656 47.4005 77.6656 47.1186 77.6921 46.8385C77.6986 46.8025 77.6975 46.7654 77.6888 46.7298C77.6801 46.6942 77.664 46.6609 77.6417 46.6318V46.6318ZM97.642 83.4763L81.5338 80.1589C80.9287 80.9329 80.1282 81.5316 79.2147 81.8933L75.378 105.69L97.7478 83.5268C97.7478 83.5268 97.6974 83.6276 97.642 83.6276V83.4763ZM75.1107 81.8428C74.3493 81.5305 73.6716 81.044 73.1323 80.4223C72.5929 79.8007 72.2068 79.0612 72.0051 78.2633L42.0072 72.1023L41.5837 72.788L68.7986 112.163L70.427 110.53L75.0603 81.9437C75.0603 81.9437 75.2166 82.0546 75.1107 81.9991V81.8428ZM42.6374 68.4723L72.2723 74.5778C72.6982 73.8341 73.2992 73.2056 74.0232 72.7469C74.7472 72.2883 75.5722 72.0133 76.4266 71.946L79.6382 52.3138L78.9575 51.734L42.113 67.5245C42.3064 67.8298 42.4814 68.1463 42.6374 68.4723V68.4723ZM30.2147 73.4182L29.5845 72.788L16.7938 78.0515L23.0051 84.2124L30.0584 73.2619L30.2147 73.4182ZM38.6343 75.4198C37.7437 75.8291 36.776 76.044 35.7958 76.05C35.0245 76.0531 34.2579 75.9287 33.5271 75.6819L25.7427 87.0005L59.8496 120.79L65.8492 114.841L38.6343 75.4198ZM33.8447 62.1047C34.3713 62.0559 34.9012 62.0559 35.4278 62.1047C36.0036 62.0323 36.5863 62.0323 37.1621 62.1047L50.9511 40.6776C49.8741 39.5624 49.2706 38.0736 49.2672 36.5233C49.2173 36.0692 49.2173 35.6111 49.2672 35.157L32.5288 27.418L19.0575 40.5264L33.8447 62.1047ZM35.3723 24.7863L51.6922 31.7337C52.8745 30.7611 54.3721 30.2553 55.902 30.312C56.5812 30.3179 57.2558 30.4249 57.9035 30.6296L70.6388 10.7301L60.1118 0.203125L35.3723 24.4687C35.3723 24.4687 35.3219 24.7308 35.3723 24.7863V24.7863ZM29.2719 65.9465C29.5995 65.3344 30.0063 64.7682 30.4819 64.2625L16.5266 43.4203L0 59.473L29.2618 65.9465H29.2719ZM27.951 69.4756L2.68721 64.202L13.794 75.4702L27.7947 69.521L27.951 69.4756Z" fill="black"/>
</g>
<defs>
<clipPath id="clip0_701_61">
<rect width="121" height="121" fill="white"/>
</clipPath>
</defs>
</svg>
