<svg width="122" height="122" viewBox="0 0 122 122" fill="none" xmlns="http://www.w3.org/2000/svg">
<path d="M60.9975 0L8.15625 30.5V91.5L60.9975 122L113.839 91.5V30.5L60.9975 0ZM91.4975 84.3325C91.4975 87.9163 88.2137 90.89 83.7251 90.89C80.5175 90.89 76.8575 89.5938 74.57 86.7725L44.07 50.4724V84.3274C44.07 87.9925 41.1725 90.8849 37.5938 90.8849H37.2075C33.5424 90.8849 30.65 87.8349 30.65 84.3274V37.6675C30.65 34.0838 33.8525 31.11 38.275 31.11C41.5588 31.11 45.29 32.4063 47.5775 35.2275L77.925 71.5276V37.6675C77.925 34.0024 80.975 31.11 84.4825 31.11H84.8638C88.5238 31.11 91.4213 34.16 91.4213 37.6675V84.3325H91.4975Z" fill="black"/>
</svg>
