<svg width="140" height="140" viewBox="0 0 140 140" fill="none" xmlns="http://www.w3.org/2000/svg">
<path d="M117.513 35.5678L75.0123 10.078C73.4857 9.20769 71.7587 8.75 70.0015 8.75C68.2443 8.75 66.5173 9.20769 64.9908 10.078L22.4876 35.5651C20.9559 36.5037 19.6922 37.8215 18.8185 39.3912C17.9449 40.9608 17.4908 42.7293 17.5001 44.5256V95.4315C17.491 97.229 17.945 98.9985 18.8186 100.569C19.6922 102.14 20.9559 103.46 22.4876 104.4L33.633 111.056L33.6958 111.091C39.3232 113.971 41.4779 113.971 43.9744 113.971C52.7626 113.971 58.2232 108.283 58.2232 99.1256V49.7674C58.2283 49.1512 57.9888 48.5582 57.5571 48.1183C57.1255 47.6785 56.537 47.4278 55.9208 47.4213H49.8013C49.1851 47.4278 48.5967 47.6785 48.165 48.1183C47.7334 48.5582 47.4939 49.1512 47.499 49.7674V99.1256C47.5212 99.8323 47.3605 100.533 47.0323 101.159C46.7041 101.785 46.2197 102.316 45.6259 102.699C44.0126 103.684 41.6693 103.476 39.0251 102.112L28.3447 95.6831C28.3038 95.6552 28.2704 95.6176 28.2475 95.5737C28.2246 95.5299 28.2129 95.481 28.2134 95.4315V45.2448C28.2152 45.1871 28.2307 45.1307 28.2588 45.0802C28.2869 45.0298 28.3266 44.9868 28.3748 44.9549L69.8935 19.5253C69.9245 19.5098 69.9587 19.5018 69.9933 19.5018C70.0279 19.5018 70.0621 19.5098 70.0931 19.5253L111.636 44.9549C111.684 44.9894 111.722 45.0347 111.748 45.0871C111.774 45.1394 111.788 45.1972 111.787 45.2557V95.4315C111.788 95.4834 111.777 95.5348 111.756 95.5821C111.735 95.6294 111.703 95.6713 111.664 95.7049L70.0849 120.492C70.0141 120.517 69.937 120.517 69.8662 120.492L59.2486 114.187C58.9334 113.981 58.5692 113.862 58.1932 113.842C57.8171 113.822 57.4426 113.902 57.1076 114.074L57.0146 114.129C54.0833 115.865 53.2958 116.317 50.5779 117.307C50.1349 117.468 49.0931 117.853 49.0029 118.884C48.9126 119.915 49.9025 120.648 50.783 121.159L64.9744 129.874C66.4864 130.779 68.2157 131.259 69.9783 131.26H70.1369C71.8554 131.233 73.5367 130.755 75.0123 129.874L117.513 104.408C119.044 103.465 120.306 102.144 121.18 100.572C122.053 98.9999 122.508 97.2298 122.5 95.4315V44.5256C122.509 42.7298 122.054 40.962 121.181 39.3929C120.307 37.8238 119.044 36.5064 117.513 35.5678V35.5678Z" fill="black"/>
<path d="M84.1863 86.9691C73.9898 86.9691 71.816 84.1199 71.1706 79.5207C71.098 78.9731 70.8311 78.4698 70.4186 78.1025C70.006 77.7351 69.4753 77.5281 68.923 77.5191H63.5089C62.8987 77.5321 62.3185 77.7862 61.8952 78.2259C61.4719 78.6655 61.2401 79.255 61.2503 79.8652C61.2503 83.852 62.6503 96.8648 84.1972 96.8648C90.8636 96.8648 96.4089 95.3063 100.229 92.3559C104.049 89.4055 106.094 85.1125 106.094 79.9965C106.094 69.7289 99.3949 66.918 86.2015 65.0805C72.7894 63.2156 72.7894 62.2668 72.7894 60.1887C72.7894 58.693 72.7894 55.1902 82.4855 55.1902C89.3843 55.1902 93.0785 56.0625 94.2597 60.659C94.3643 61.1686 94.6398 61.6272 95.0406 61.9588C95.4414 62.2905 95.9434 62.4754 96.4636 62.4828H101.897C102.217 62.4796 102.533 62.4083 102.823 62.2734C103.114 62.1386 103.372 61.9433 103.581 61.7008C103.999 61.2131 104.207 60.5803 104.161 59.9398C103.458 50.2191 96.3515 45.2891 82.4937 45.2891C69.8992 45.2891 62.3824 50.9629 62.3824 60.4648C62.3824 70.8828 70.1726 73.8277 81.8757 75.0473C95.5476 76.4609 95.5476 78.5227 95.5476 80.3438C95.5558 83.182 94.3773 86.9691 84.1863 86.9691Z" fill="black"/>
</svg>
