<svg width="138" height="138" viewBox="0 0 138 138" fill="none" xmlns="http://www.w3.org/2000/svg">
<path d="M113.413 116.562L113.545 116.303C113.666 116.088 113.768 115.863 113.85 115.631L113.862 115.602C114.274 114.487 114.381 113.282 114.172 112.112L114.178 112.152C113.955 110.884 113.496 109.669 112.827 108.57L112.855 108.616L82.2825 54.8359L77.6135 46.6709L72.9733 54.8359L42.4178 108.616C41.8287 109.697 41.4318 110.872 41.2448 112.089L41.239 112.152C40.9908 113.534 41.1506 114.959 41.699 116.252L41.6818 116.206C41.7637 116.408 41.8598 116.604 41.9693 116.792L41.9578 116.769C42.8778 118.35 44.8328 120.231 49.1453 120.231H106.059C106.962 120.231 111.378 120.047 113.419 116.568L113.413 116.562ZM77.6078 62.9951L105.547 112.146H49.68L77.6078 62.9951ZM136.54 108.616L96.1975 37.5456C95.7835 36.7981 93.4548 33.0204 89.401 33.0204C87.5783 33.0204 84.962 33.7966 82.8345 37.5341L77.6193 46.6766L82.2595 54.8416L89.447 42.1226L129.358 112.158H114.178C114.373 113.332 114.258 114.537 113.844 115.654L113.862 115.608C113.774 115.858 113.664 116.101 113.534 116.332L113.545 116.309L113.413 116.568C111.372 120.047 106.962 120.231 106.099 120.231H129.841C130.715 120.231 135.114 120.047 137.155 116.568C138.058 114.987 138.707 112.33 136.54 108.621V108.616ZM41.998 116.763C41.9027 116.592 41.8163 116.415 41.7393 116.234L41.7278 116.2C41.1631 114.914 40.9949 113.488 41.2448 112.106L41.239 112.146H8.63076L57.0975 26.8621L73.0078 54.8301L77.6193 46.6651L63.7503 22.2334C63.365 21.5319 61.019 17.7656 56.9825 17.7656C55.1598 17.7656 52.5435 18.5534 50.416 22.2909L1.32251 108.61C0.908505 109.357 -1.12125 113.279 0.891255 116.758C1.81126 118.339 3.76626 120.219 8.07876 120.219H49.197C44.9133 120.219 42.9295 118.368 42.0095 116.758L41.998 116.763Z" fill="black"/>
</svg>
