<svg width="122" height="122" viewBox="0 0 122 122" fill="none" xmlns="http://www.w3.org/2000/svg">
<path d="M60.8884 72.1986C67.0227 72.1986 71.9955 67.2258 71.9955 61.0915C71.9955 54.9572 67.0227 49.9844 60.8884 49.9844C54.7541 49.9844 49.7812 54.9572 49.7812 61.0915C49.7812 67.2258 54.7541 72.1986 60.8884 72.1986Z" fill="black"/>
<path d="M60.8921 101.935C69.6106 110.414 78.2097 115.43 85.1367 115.43C87.4059 115.43 89.5556 114.953 91.3471 113.878C97.5575 110.295 99.8267 101.337 97.677 88.5582C97.3187 86.289 96.8409 84.0198 96.2438 81.6312C98.6324 80.9146 100.782 80.198 102.932 79.4814C114.994 74.8236 121.683 68.3743 121.683 61.3279C121.683 54.162 114.994 47.7127 102.932 43.1743C100.782 42.3383 98.6324 41.6217 96.2438 41.0245C96.8409 38.6359 97.3187 36.3667 97.677 34.0975C99.7073 21.0795 97.4381 12.0027 91.2277 8.4198C89.4362 7.34491 87.2864 6.86719 85.0172 6.86719C78.2096 6.86719 69.4912 11.8833 60.7727 20.3629C52.1736 11.8833 43.5746 6.86719 36.6475 6.86719C34.3784 6.86719 32.2286 7.34491 30.4371 8.4198C24.2267 12.0027 21.9575 20.9601 24.1073 33.7392C24.4656 36.0084 24.9433 38.2776 25.5404 40.6663C23.1518 41.3828 21.002 42.0994 18.8523 42.816C6.78972 47.4738 0.101562 53.9231 0.101562 60.9696C0.101562 68.1355 6.78972 74.5848 18.8523 79.1231C21.002 79.9592 23.1518 80.6758 25.5404 81.2729C24.9433 83.6615 24.4656 85.9307 24.1073 88.1999C22.0769 100.979 24.3461 110.056 30.4371 113.519C32.2286 114.594 34.3784 115.072 36.6475 115.072C43.5746 115.311 52.1736 110.295 60.8921 101.935ZM54.204 85.8113C56.3537 85.9307 58.6229 85.9307 60.8921 85.9307C63.1613 85.9307 65.4305 85.9307 67.5803 85.8113C65.4305 88.6776 63.1613 91.3051 60.8921 93.8132C58.6229 91.3051 56.3537 88.6776 54.204 85.8113V85.8113ZM39.3945 73.5099C40.5888 75.5402 41.6637 77.4511 42.9774 79.362C39.275 78.8843 35.8115 78.2871 32.4675 77.5705C33.5423 74.3459 34.7366 71.0018 36.1698 67.6577C37.1253 69.5686 38.2002 71.599 39.3945 73.5099V73.5099ZM32.4675 44.7269C35.8115 44.0103 39.275 43.4132 42.9774 42.9354C41.7831 44.8463 40.5888 46.7573 39.3945 48.7876C38.2002 50.8179 37.1253 52.7288 36.1698 54.7592C34.6172 51.2956 33.4229 47.9516 32.4675 44.7269V44.7269ZM39.0362 61.089C40.5888 57.8644 42.2608 54.6397 44.1717 51.4151C45.9632 48.3099 47.9935 45.2046 50.0239 42.0994C53.6068 41.8606 57.1897 41.7411 60.8921 41.7411C64.7139 41.7411 68.2969 41.8606 71.7604 42.0994C73.9101 45.2046 75.821 48.3099 77.6125 51.4151C79.5234 54.6397 81.1954 57.8644 82.748 61.089C81.1954 64.3137 79.5234 67.5383 77.6125 70.7629C75.821 73.8682 73.7907 76.9734 71.7604 80.0786C68.1774 80.3175 64.5945 80.4369 60.8921 80.4369C57.0703 80.4369 53.4874 80.3175 50.0239 80.0786C47.8741 76.9734 45.9632 73.8682 44.1717 70.7629C42.2608 67.5383 40.5888 64.3137 39.0362 61.089V61.089ZM85.7338 54.6397L82.5092 48.6682C81.3149 46.6378 80.24 44.7269 78.9262 42.816C82.6286 43.2937 86.0921 43.8909 89.4362 44.6075C88.3613 47.9516 87.167 51.2956 85.7338 54.6397ZM85.7338 67.5383C87.167 70.8824 88.3613 74.2265 89.4362 77.4511C86.0921 78.1677 82.6286 78.7649 78.9262 79.2426C80.1206 77.3317 81.3149 75.4208 82.5092 73.3904C83.5841 71.599 84.6589 69.5686 85.7338 67.5383ZM88.4807 108.981C87.5253 109.578 86.331 109.817 85.0172 109.817C79.1651 109.817 71.8798 105.04 64.7139 97.8739C68.1774 94.1715 71.5215 89.9914 74.8656 85.3336C80.4788 84.8559 85.8533 84.0198 90.8694 82.8255C91.4665 84.9753 91.8248 87.125 92.1831 89.2748C93.8552 99.4265 92.5414 106.712 88.4807 108.981V108.981ZM94.6912 46.0407C108.067 49.8625 116.069 55.7146 116.069 61.089C116.069 65.7468 110.576 70.4047 100.902 74.107C98.9907 74.8236 96.8409 75.5402 94.6912 76.1374C93.1386 71.2407 91.2277 66.2246 88.839 61.089C91.2277 55.9535 93.258 50.9374 94.6912 46.0407ZM85.1367 12.361C86.4504 12.361 87.5253 12.5999 88.6002 13.197C92.5414 15.4662 93.9746 22.6321 92.3026 32.9032C91.9443 34.9335 91.4665 37.0833 90.9888 39.3525C85.9727 38.2776 80.5983 37.4416 74.985 36.8445C71.7604 32.1866 68.2969 28.0065 64.8333 24.3042C71.9992 17.2577 79.2845 12.361 85.1367 12.361V12.361ZM67.5803 36.3667C65.4305 36.2473 63.1613 36.2473 60.8921 36.2473C58.6229 36.2473 56.3537 36.2473 54.204 36.3667C56.3537 33.5004 58.6229 30.8729 60.8921 28.3648C63.1613 30.8729 65.4305 33.6198 67.5803 36.3667ZM33.3035 13.197C34.2589 12.5999 35.4532 12.361 36.767 12.361C42.6191 12.361 49.9044 17.1383 57.0703 24.3042C53.6068 28.0065 50.2627 32.1866 46.9186 36.8445C41.3054 37.3222 35.931 38.1582 30.9148 39.3525C30.3177 37.2027 29.9594 35.053 29.6011 32.9032C27.9291 22.7516 29.2428 15.5857 33.3035 13.197V13.197ZM27.093 76.1374C13.7167 72.3156 5.71483 66.4634 5.71483 61.089C5.71483 56.4312 11.2087 51.7734 20.8826 48.071C22.7935 47.3544 24.9433 46.6378 27.093 46.0407C28.6457 50.9374 30.5565 55.9535 32.9452 61.089C30.5565 66.2246 28.5262 71.3601 27.093 76.1374V76.1374ZM29.6011 89.2748C29.9594 87.2445 30.4371 85.0947 30.9148 82.8255C35.931 83.9004 41.3054 84.7364 46.9186 85.3336C50.1433 89.9914 53.6068 94.1715 57.0703 97.8739C49.9044 104.92 42.6191 109.817 36.767 109.817C35.4532 109.817 34.3784 109.578 33.3035 108.981C29.2428 106.712 27.9291 99.4265 29.6011 89.2748V89.2748Z" fill="black"/>
</svg>
