<svg width="136" height="136" viewBox="0 0 136 136" fill="none" xmlns="http://www.w3.org/2000/svg">
<path d="M135.966 81.2618C135.909 82.5595 134.192 84.0101 130.668 85.8518C123.414 89.6315 85.8103 105.096 77.809 109.266C69.802 113.437 65.3593 113.397 59.0353 110.371C52.7113 107.351 12.7047 91.1841 5.49667 87.7445C1.89833 86.0218 0.0623333 84.5711 0 83.1998V96.9471C0 98.3185 1.89267 99.7748 5.49667 101.497C12.7047 104.943 52.717 121.104 59.0353 124.124C65.3593 127.15 69.802 127.19 77.809 123.014C85.8103 118.843 123.409 103.384 130.668 99.5991C134.357 97.6781 135.994 96.1821 135.994 94.8278V81.2731L135.966 81.2618V81.2618ZM135.966 58.8501C135.898 60.1478 134.187 61.5928 130.668 63.4345C123.414 67.2141 85.8103 82.6785 77.809 86.8491C69.802 91.0198 65.3593 90.9801 59.0353 87.9598C52.7113 84.9395 12.7047 68.7725 5.49667 65.3271C1.89833 63.6101 0.0623333 62.1538 0 60.7881V74.5355C0 75.9068 1.89267 77.3575 5.49667 79.0801C12.7047 82.5255 52.7113 98.6868 59.0353 101.707C65.3593 104.733 69.802 104.773 77.809 100.602C85.8103 96.4315 123.409 80.9671 130.668 77.1875C134.357 75.2608 135.994 73.7648 135.994 72.4105V58.8558L135.96 58.8501H135.966ZM135.966 35.6055C136.028 34.2228 134.221 33.0101 130.583 31.6728C123.511 29.0831 86.139 14.2081 78.982 11.5845C71.825 8.96647 68.9123 9.07414 60.5087 12.0945C52.088 15.1035 12.2967 30.7151 5.219 33.4805C1.67733 34.8745 -0.051 36.1608 0.00566667 37.5321V51.2851C0.00566667 52.6565 1.89833 54.1071 5.50233 55.8298C12.7103 59.2751 52.717 75.4421 59.041 78.4625C65.365 81.4828 69.8077 81.5225 77.8147 77.3518C85.816 73.1811 123.414 57.7168 130.673 53.9371C134.362 52.0105 136 50.5145 136 49.1601V35.6055H135.955H135.966ZM48.6937 48.6218L80.206 43.7825L70.686 57.7395L48.6993 48.6218H48.6937ZM118.394 36.0531L99.756 43.4198L97.733 44.2131L79.1067 36.8465L99.7447 28.6865L118.388 36.0531H118.394ZM63.6763 22.5495L60.6277 16.9281L70.1363 20.6455L79.101 17.7101L76.6757 23.5185L85.8103 26.9411L74.0293 28.1651L71.3887 34.5118L67.1273 27.4341L53.5273 26.2101L63.6763 22.5495V22.5495ZM40.1993 30.4828C49.504 30.4828 57.0407 33.4011 57.0407 37.0051C57.0407 40.6091 49.504 43.5331 40.1993 43.5331C30.8947 43.5331 23.3523 40.6035 23.3523 37.0051C23.3523 33.4011 30.8947 30.4771 40.1993 30.4771V30.4828Z" fill="black"/>
</svg>
