<svg width="154" height="154" viewBox="0 0 154 154" fill="none" xmlns="http://www.w3.org/2000/svg">
<path d="M126.932 84.7572C122.091 84.7786 117.898 85.9459 114.397 87.6751C113.122 85.1025 111.803 82.8551 111.587 81.1695C111.328 79.2024 111.047 78.0357 111.35 75.7016C111.653 73.3669 113.014 70.0601 112.992 69.8228C112.971 69.5852 112.69 68.3962 109.902 68.3746C107.114 68.3532 104.715 68.9148 104.434 69.6496C104.152 70.3844 103.613 72.0489 103.288 73.7778C102.791 76.3065 97.7119 85.3407 94.8373 90.0522C93.8866 88.2156 93.0871 86.5941 92.9139 85.2974C92.6546 83.3303 92.3736 82.1636 92.6762 79.8295C92.9788 77.4949 94.3402 74.1881 94.3185 73.9508C94.2968 73.7131 94.0159 72.5241 91.2283 72.5025C88.44 72.4811 86.0416 73.0427 85.7601 73.7778C85.4791 74.5123 85.1766 76.2415 84.6147 77.9063C84.0531 79.5696 77.288 94.612 75.5158 98.5243C74.6077 100.512 73.8302 102.112 73.268 103.193C73.182 103.365 73.117 103.474 73.0737 103.56C73.1384 103.452 73.182 103.344 73.182 103.388C72.9349 103.873 72.6826 104.355 72.4252 104.835V104.857C72.0577 105.548 71.6471 106.175 71.4528 106.175C71.3229 106.175 71.0422 104.36 71.5178 101.874C72.5332 96.6438 74.9322 88.5182 74.9106 88.2367C74.8889 88.0854 75.3642 86.6807 73.3327 85.9239C71.3662 85.2108 70.6527 86.3998 70.4801 86.3998C70.3074 86.3998 70.1775 86.8323 70.1775 86.8323C70.1775 86.8323 72.3606 77.6684 65.9846 77.6684C62.008 77.6684 56.4754 82.0346 53.7524 85.9895C52.0449 86.9189 48.3489 88.9288 44.4589 91.0682C42.9676 91.8896 41.433 92.7321 39.9851 93.5322C39.8771 93.4236 39.7905 93.3156 39.6825 93.2077C31.9452 84.9521 17.6593 79.1167 18.2648 68.029C18.4807 63.9874 19.8857 53.3761 45.7342 40.4949C66.9146 29.948 83.8585 32.8442 86.7767 39.2845C90.969 48.4701 77.7205 65.5656 55.7192 68.029C47.3335 68.9584 42.9249 65.7166 41.8225 64.5065C40.6769 63.2315 40.5039 63.1662 40.0717 63.4042C39.3582 63.7931 39.8124 64.9171 40.0717 65.5869C40.7202 67.2942 43.4215 70.32 48.0253 71.833C52.0663 73.1513 61.9003 73.8864 73.7869 69.2826C87.1434 64.1387 97.5393 49.8094 94.4917 37.8149C91.3799 25.6257 71.1722 21.6272 52.0452 28.4134C40.6555 32.455 28.3364 38.8093 19.4751 47.0865C8.94986 56.9422 7.26429 65.522 7.95548 69.11C10.4195 81.8393 27.9686 90.1388 34.9927 96.2765C34.6468 96.4711 34.3226 96.6441 34.0203 96.817C30.4975 98.5673 17.1194 105.57 13.7693 112.962C9.98756 121.348 14.3958 127.355 17.292 128.177C26.326 130.684 35.5762 126.167 40.5472 118.754C45.5176 111.341 44.9128 101.658 42.622 97.2493C42.6001 97.1846 42.5571 97.1419 42.5357 97.0763C43.4432 96.5364 44.3723 95.9959 45.302 95.4557C47.0955 94.3967 48.8464 93.4236 50.3807 92.5814C49.5159 94.9158 48.8894 97.7242 48.5652 101.788C48.1763 106.543 50.1431 112.702 52.6934 115.123C53.8168 116.182 55.1784 116.204 56.0215 116.204C59.0041 116.204 60.3438 113.74 61.835 110.8C63.6722 107.212 65.2931 103.041 65.2931 103.041C65.2931 103.041 63.2616 114.323 68.8159 114.323C70.8473 114.323 72.8794 111.708 73.7866 110.368V110.389C73.7866 110.389 73.8302 110.303 73.9382 110.131C74.1541 109.806 74.2621 109.612 74.2621 109.612V109.546C75.0832 108.142 76.8774 104.921 79.5784 99.605C83.0801 92.7318 86.4296 84.1514 86.4296 84.1514C86.4296 84.1514 86.7322 86.2485 87.7702 89.7279C88.3751 91.7811 89.6501 94.0288 90.6658 96.2119C89.845 97.3356 89.3475 97.9841 89.3475 97.9841C89.3475 97.9841 89.3475 98.0054 89.3685 98.0271C88.6785 98.9458 87.9652 99.8468 87.2294 100.729C84.4628 104.014 81.1777 107.775 80.7457 108.856C80.2266 110.131 80.3565 111.081 81.3509 111.816C82.0854 112.379 83.3824 112.465 84.7437 112.357C87.2294 112.183 88.9799 111.579 89.8227 111.189C91.1624 110.714 92.7189 109.957 94.1886 108.899C96.8902 106.911 98.533 104.058 98.3812 100.297C98.2948 98.2223 97.6244 96.1472 96.8033 94.2027C97.0412 93.8565 97.3007 93.4886 97.5384 93.1219C101.818 86.875 105.125 80.0247 105.125 80.0247C105.125 80.0247 105.427 82.1206 106.464 85.6003C106.983 87.3512 107.999 89.2747 108.928 91.1545C104.908 94.4183 102.423 98.2009 101.558 100.686C99.9587 105.289 101.212 107.364 103.568 107.84C104.627 108.056 106.14 107.559 107.264 107.083C108.669 106.607 110.355 105.851 111.932 104.684C114.634 102.696 117.249 99.9076 117.077 96.1255C117.011 94.418 116.536 92.7108 115.909 91.0682C119.302 89.6422 123.712 88.8635 129.331 89.5123C141.369 90.9169 143.724 98.438 143.27 101.571C142.817 104.727 140.288 106.456 139.445 106.975C138.602 107.494 138.343 107.688 138.408 108.077C138.516 108.639 138.905 108.618 139.618 108.488C140.613 108.315 145.929 105.937 146.166 100.124C146.513 92.7751 139.446 84.6925 126.932 84.7572V84.7572ZM34.1499 116.03C30.1736 120.375 24.5974 122.017 22.1987 120.634C19.6267 119.143 20.6424 112.746 25.5485 108.12C28.531 105.311 32.378 102.717 34.9283 101.118C35.5119 100.773 36.3549 100.254 37.3923 99.6269C37.5653 99.5196 37.6516 99.4759 37.6516 99.4759C37.8459 99.3457 38.0622 99.238 38.2784 99.1081C40.0717 105.678 38.3428 111.47 34.1499 116.03V116.03ZM63.1973 96.2765C61.814 99.6694 58.8961 108.315 57.1245 107.861C55.6116 107.472 54.6818 100.88 56.8219 94.3967C57.9023 91.1329 60.1931 87.2429 61.555 85.7302C63.7375 83.2876 66.1365 82.5095 66.6987 83.4822C67.4548 84.7572 64.0614 94.1587 63.1973 96.2765ZM87.1867 107.732C86.6035 108.034 86.063 108.228 85.8037 108.077C85.6094 107.969 86.0416 107.558 86.0416 107.558C86.0416 107.558 89.0452 104.338 90.2342 102.868C91.0288 101.874 91.814 100.873 92.5899 99.8643C92.5899 99.9716 92.611 100.081 92.611 100.21C92.5902 104.079 88.8729 106.694 87.1867 107.732V107.732ZM105.687 103.517C105.255 103.214 105.32 102.199 106.768 99.0428C107.33 97.8108 108.627 95.7363 110.874 93.7479C111.134 94.569 111.285 95.3468 111.285 96.0816C111.263 100.945 107.784 102.76 105.687 103.517Z" fill="black"/>
</svg>
