<svg width="118" height="118" viewBox="0 0 118 118" fill="none" xmlns="http://www.w3.org/2000/svg">
<path d="M44.4589 3.40649C59.3324 -0.407929 75.7701 1.81486 88.8873 9.91021C105.407 19.7893 116.192 38.4772 116.466 57.7139C117.07 77.1428 106.944 96.407 90.671 106.972C72.5594 119.156 47.5049 119.623 29.0091 108.042C10.1566 96.7911 -0.847615 74.0967 1.9789 52.3079C4.25657 29.2842 22.0389 8.97719 44.4589 3.40649Z" fill="black"/>
<path d="M42.1823 12.8194C70.2828 1.56822 104.75 22.3417 107.659 52.4729C112.186 79.5854 89.6842 107.137 62.2149 107.933C36.0902 110.54 10.8437 88.3943 10.1028 62.1598C8.1544 40.9198 22.1498 19.8445 42.1823 12.8194Z" fill="white"/>
<path d="M45.0078 56.091C57.6036 45.8003 69.925 35.1529 82.7953 25.1641C76.0446 35.5371 69.1018 45.7729 62.3511 56.1459C56.5608 56.1734 50.7706 56.1734 45.0078 56.091Z" fill="black"/>
<path d="M55.6551 61.8281C61.4728 61.8281 67.263 61.8281 73.0533 61.9105C60.3751 72.1463 48.1086 82.876 35.2109 92.8374C41.9616 82.4644 48.9044 72.2011 55.6551 61.8281Z" fill="black"/>
</svg>
