<svg width="129" height="129" viewBox="0 0 129 129" fill="none" xmlns="http://www.w3.org/2000/svg">
<path d="M116.1 10.3203H12.9003C11.4733 10.3203 10.3203 11.4763 10.3203 12.9003V116.1C10.3203 117.524 11.4733 118.68 12.9003 118.68H116.1C117.527 118.68 118.68 117.524 118.68 116.1V12.9003C118.68 11.4763 117.527 10.3203 116.1 10.3203ZM74.8203 68.2282H61.9203V108.36H51.6003V68.2282H38.7003V59.3403H74.8203V68.2282ZM77.7127 106.07V95.3414C77.7127 95.3414 83.5722 99.7586 90.6027 99.7586C97.6332 99.7586 97.3621 95.161 97.3621 94.5311C97.3621 87.8594 77.4416 87.8594 77.4416 73.0788C77.4416 52.978 106.467 60.9085 106.467 60.9085L106.106 70.4656C106.106 70.4656 101.237 67.2194 95.7385 67.2194C90.2409 67.2194 88.2565 69.8337 88.2565 72.6273C88.2565 79.8382 108.357 79.1186 108.357 93.6311C108.36 115.984 77.7127 106.07 77.7127 106.07Z" fill="black"/>
</svg>
