<svg width="139" height="136" viewBox="0 0 139 136" fill="none" xmlns="http://www.w3.org/2000/svg">
<g clip-path="url(#clip0_701_30)">
<path d="M135.487 20.0341L73.1072 130.793C71.8192 133.08 68.5104 133.094 67.2031 130.818L3.5864 20.0448C2.16222 17.5649 4.29784 14.5611 7.12799 15.0634L69.5746 26.1466C69.9729 26.2173 70.3808 26.2166 70.7791 26.1446L131.92 15.0793C134.74 14.5688 136.886 17.5493 135.487 20.0341V20.0341Z" fill="black"/>
<path d="M96.6063 3.56375L50.4434 12.5454C49.6846 12.693 49.1229 13.3315 49.0771 14.0977L46.2374 61.7191C46.1706 62.8408 47.2081 63.7113 48.3106 63.4588L61.163 60.5136C62.3655 60.2382 63.4521 61.2899 63.2049 62.4907L59.3865 81.057C59.1295 82.3066 60.311 83.3751 61.54 83.0044L69.4782 80.6096C70.7089 80.2387 71.8914 81.3102 71.631 82.5608L65.5628 111.724C65.1831 113.549 67.6268 114.543 68.6459 112.979L69.3267 111.935L106.943 37.3946C107.573 36.1466 106.486 34.7234 105.106 34.988L91.8766 37.5232C90.6334 37.7612 89.5756 36.6116 89.9265 35.4039L98.5611 5.68202C98.9123 4.47224 97.8508 3.32164 96.6063 3.56375V3.56375Z" fill="white"/>
</g>
<defs>
<clipPath id="clip0_701_30">
<rect width="139" height="136" fill="white"/>
</clipPath>
</defs>
</svg>
